<svg height="1024" node-id="1" sillyvg="true" template-height="1024" template-width="1024" version="1.1" viewBox="0 0 1024 1024" width="1024" xmlns="http://www.w3.org/2000/svg" xmlns:xlink="http://www.w3.org/1999/xlink"><defs node-id="60"><linearGradient gradientUnits="objectBoundingBox" id="linearGradient-1" node-id="5" spreadMethod="pad" x1="0.5" x2="0.5" y1="0" y2="1"><stop offset="0" stop-color="#2dadad" stop-opacity="0.6203417"/><stop offset="1" stop-color="#ffffff"/></linearGradient><linearGradient gradientUnits="objectBoundingBox" id="linearGradient-2" node-id="8" spreadMethod="pad" x1="0.5" x2="0.50571275" y1="0" y2="0.766"><stop offset="0" stop-color="#f8f8f8" stop-opacity="0.71"/><stop offset="1" stop-color="#e2e7f2" stop-opacity="0"/></linearGradient><linearGradient gradientUnits="objectBoundingBox" id="linearGradient-3" node-id="11" spreadMethod="pad" x1="0.5" x2="0.5" y1="0" y2="0.6386449"><stop offset="0" stop-color="#2dadad" stop-opacity="0.6203417"/><stop offset="1" stop-color="#ffffff"/></linearGradient><linearGradient gradientUnits="objectBoundingBox" id="linearGradient-4" node-id="14" spreadMethod="pad" x1="0.6847118" x2="-0.0046250816" y1="0.463" y2="0.605"><stop offset="0" stop-color="#eaeef2"/><stop offset="1" stop-color="#e1e6ed"/></linearGradient><linearGradient gradientUnits="objectBoundingBox" id="linearGradient-5" node-id="17" spreadMethod="pad" x1="0.9760614" x2="-0.07032155" y1="0.471" y2="0.454"><stop offset="0" stop-color="#eaeef2"/><stop offset="1" stop-color="#e1e6ed"/></linearGradient><linearGradient gradientUnits="objectBoundingBox" id="linearGradient-6" node-id="20" spreadMethod="pad" x1="0.731" x2="0.731" y1="0.953" y2="0.217"><stop offset="0" stop-color="#f8f8f8"/><stop offset="1" stop-color="#e2e7f2"/></linearGradient><linearGradient gradientUnits="objectBoundingBox" id="linearGradient-7" node-id="23" spreadMethod="pad" x1="0.305" x2="0.325" y1="0.9589744" y2="0.12609865"><stop offset="0" stop-color="#f8f8f8"/><stop offset="1" stop-color="#e2e7f2"/></linearGradient><linearGradient gradientUnits="objectBoundingBox" id="linearGradient-8" node-id="26" spreadMethod="pad" x1="0.49999923" x2="0.49999923" y1="0" y2="0.99999845"><stop offset="0" stop-color="#f8f8f8"/><stop offset="1" stop-color="#e2e7f2"/></linearGradient><linearGradient gradientUnits="objectBoundingBox" id="linearGradient-9" node-id="29" spreadMethod="pad" x1="0.49999923" x2="0.49999923" y1="0" y2="0.99999845"><stop offset="0" stop-color="#f8f8f8"/><stop offset="1" stop-color="#e2e7f2"/></linearGradient><linearGradient gradientUnits="objectBoundingBox" id="linearGradient-10" node-id="32" spreadMethod="pad" x1="0.5" x2="0.5" y1="0" y2="1"><stop offset="0" stop-color="#2dadad" stop-opacity="0.6203417"/><stop offset="1" stop-color="#ffffff"/></linearGradient><linearGradient gradientUnits="objectBoundingBox" id="linearGradient-11" node-id="35" spreadMethod="pad" x1="0.034368683" x2="1.480827" y1="0.5" y2="0.5"><stop offset="0" stop-color="#59ddaf"/><stop offset="1" stop-color="#26ba84"/></linearGradient></defs><g node-id="127"><g node-id="128"><path d="M -8.00 12.00 L 991.19 12.00 L 991.19 1036.00 L -8.00 1036.00 Z" fill="#ffffff" fill-opacity="0" fill-rule="nonzero" group-id="1,2" id="矩形_343" node-id="41" stroke="none" target-height="1024" target-width="999.1862" target-x="-8" target-y="12"/><g node-id="130"><path d="M 613.13 559.56 L 603.70 558.90 L 594.70 557.36 L 586.06 554.96 L 577.78 551.73 L 569.79 547.64 L 562.36 542.90 L 555.43 537.50 L 548.98 531.39 L 543.14 524.69 L 537.96 517.52 L 533.47 509.83 L 529.63 501.57 L 526.59 493.04 L 524.38 484.14 L 523.02 474.90 L 522.54 465.20 L 523.02 455.53 L 524.38 446.26 L 526.59 437.39 L 529.63 428.85 L 533.47 420.59 L 537.96 412.90 L 543.14 405.71 L 548.98 399.01 L 555.43 392.92 L 562.36 387.50 L 569.79 382.78 L 577.78 378.70 L 586.06 375.47 L 594.70 373.06 L 603.70 371.53 L 613.13 370.87 L 624.69 371.62 L 635.92 373.86 L 646.90 377.59 L 646.65 370.87 L 647.13 360.87 L 648.67 351.24 L 651.32 341.90 L 655.00 332.94 L 659.63 324.56 L 665.22 316.73 L 671.67 309.58 L 678.92 303.26 L 687.04 297.69 L 695.77 293.19 L 704.72 289.84 L 713.95 287.60 L 723.36 286.49 L 732.75 286.49 L 742.19 287.60 L 751.40 289.84 L 760.35 293.19 L 769.08 297.69 L 777.20 303.26 L 784.45 309.58 L 790.90 316.73 L 796.49 324.56 L 801.12 332.94 L 804.80 341.90 L 807.45 351.24 L 809.01 360.87 L 809.47 370.87 L 808.80 381.79 L 806.80 392.38 L 803.46 402.78 L 809.96 399.13 L 816.65 396.13 L 823.60 393.77 L 830.76 392.10 L 838.01 391.06 L 845.40 390.73 L 856.61 391.65 L 867.18 393.94 L 877.17 397.62 L 886.65 402.60 L 895.26 408.61 L 903.08 415.76 L 909.97 423.87 L 915.77 432.74 L 920.51 442.51 L 923.98 452.79 L 926.12 463.64 L 926.88 475.13 L 926.12 486.64 L 923.98 497.49 L 920.51 507.78 L 915.77 517.54 L 909.97 526.41 L 903.08 534.53 L 895.26 541.68 L 886.65 547.69 L 877.17 552.67 L 867.18 556.35 L 856.61 558.64 L 845.40 559.56 Z" fill="url(#linearGradient-1)" fill-opacity="0.2" fill-rule="nonzero" group-id="1,2,4" id="联合_69" node-id="43" stroke="none" target-height="273.06665" target-width="404.34705" target-x="522.53687" target-y="286.49"/><path d="M 82.53 791.08 L 81.55 786.56 L 79.02 774.17 L 75.57 755.67 L 71.86 732.83 L 70.10 720.43 L 68.49 707.40 L 67.14 694.26 L 66.12 681.15 L 65.49 668.14 L 65.36 655.83 L 65.58 647.69 L 66.09 640.16 L 66.85 633.21 L 68.01 626.31 L 69.49 620.29 L 71.24 615.06 L 72.94 611.24 L 74.83 608.02 L 76.90 605.33 L 79.15 603.12 L 82.39 600.71 L 85.50 598.86 L 88.50 597.51 L 91.43 596.63 L 95.50 595.99 L 99.46 595.98 L 103.34 596.59 L 107.15 597.72 L 110.86 599.29 L 114.50 601.30 L 119.66 604.88 L 124.50 609.01 L 128.99 613.51 L 132.96 618.02 L 136.58 622.58 L 139.48 626.59 L 143.68 632.99 L 145.17 635.51 L 144.05 631.42 L 141.22 620.26 L 137.50 603.70 L 135.56 594.08 L 133.64 583.39 L 131.93 572.41 L 130.46 560.99 L 129.38 549.49 L 128.75 538.17 L 128.65 530.63 L 128.84 523.44 L 129.31 516.59 L 130.16 509.77 L 131.38 503.56 L 132.93 497.90 L 134.45 493.74 L 136.21 490.03 L 138.19 486.72 L 140.39 483.78 L 142.94 481.15 L 145.79 478.97 L 148.96 477.21 L 152.50 475.88 L 156.21 475.13 L 159.78 474.93 L 163.28 475.28 L 166.72 476.16 L 170.03 477.49 L 173.31 479.26 L 176.60 481.49 L 179.89 484.23 L 183.92 488.24 L 187.92 492.89 L 191.92 498.26 L 195.58 503.86 L 199.18 509.90 L 202.68 516.40 L 207.54 526.40 L 212.07 536.81 L 216.26 547.35 L 220.01 557.64 L 223.44 567.80 L 226.36 577.05 L 231.03 593.19 L 233.91 604.23 L 234.90 608.32 L 234.45 604.24 L 233.66 593.39 L 233.40 586.32 L 233.37 577.90 L 233.66 569.17 L 234.41 559.87 L 235.20 553.64 L 236.28 547.49 L 237.65 541.41 L 239.38 535.45 L 241.46 529.87 L 243.91 524.64 L 246.07 520.90 L 248.48 517.50 L 251.13 514.43 L 254.04 511.67 L 257.22 509.28 L 260.74 507.31 L 264.61 505.75 L 268.89 504.60 L 272.35 504.29 L 275.81 504.61 L 279.33 505.58 L 282.97 507.26 L 286.32 509.35 L 289.78 511.99 L 293.33 515.24 L 297.00 519.16 L 301.46 524.61 L 306.01 530.89 L 310.65 538.07 L 314.97 545.42 L 319.28 553.30 L 323.57 561.74 L 329.63 574.62 L 335.42 587.93 L 340.89 601.36 L 345.88 614.40 L 350.56 627.24 L 354.61 638.89 L 361.26 659.16 L 365.49 672.97 L 366.99 678.07 Z" fill="url(#linearGradient-2)" fill-rule="nonzero" group-id="1,2,4" id="路径_63" node-id="44" stroke="none" target-height="316.15002" target-width="301.62936" target-x="65.35822" target-y="474.93"/><g node-id="133"><path d="M 1016.00 826.80 L 1015.75 832.16 L 1015.00 837.51 L 1013.78 842.87 L 1012.01 848.30 L 1009.69 853.81 L 1006.76 859.41 L 1003.01 865.39 L 998.51 871.47 L 993.20 877.67 L 986.97 884.00 L 979.74 890.48 L 972.72 896.10 L 964.90 901.78 L 956.21 907.51 L 946.59 913.29 L 935.98 919.12 L 923.12 925.53 L 908.98 931.90 L 893.46 938.21 L 876.49 944.46 L 858.55 950.42 L 839.50 956.10 L 819.29 961.51 L 799.05 966.37 L 777.86 970.90 L 755.74 975.09 L 733.59 978.79 L 710.72 982.11 L 687.11 985.03 L 663.48 987.48 L 639.33 989.51 L 614.67 991.13 L 589.99 992.28 L 565.01 992.97 L 539.71 993.20 L 514.42 992.97 L 489.43 992.28 L 464.76 991.13 L 440.08 989.51 L 415.94 987.48 L 392.32 985.03 L 368.70 982.11 L 345.83 978.79 L 323.68 975.09 L 301.55 970.90 L 280.38 966.37 L 260.12 961.51 L 239.92 956.10 L 220.87 950.42 L 202.93 944.46 L 185.96 938.21 L 170.45 931.90 L 156.31 925.53 L 143.45 919.12 L 132.83 913.29 L 123.21 907.51 L 114.52 901.78 L 106.70 896.10 L 99.69 890.48 L 92.46 884.00 L 86.23 877.67 L 80.91 871.47 L 76.41 865.39 L 72.67 859.41 L 69.73 853.81 L 67.42 848.30 L 65.65 842.87 L 64.42 837.51 L 63.68 832.16 L 63.43 826.80 L 63.68 821.44 L 64.42 816.09 L 65.65 810.73 L 67.42 805.30 L 69.73 799.79 L 72.67 794.19 L 76.41 788.21 L 80.91 782.13 L 86.23 775.93 L 92.46 769.60 L 99.69 763.12 L 106.70 757.50 L 114.52 751.82 L 123.21 746.09 L 132.83 740.31 L 143.45 734.48 L 156.31 728.07 L 170.45 721.70 L 185.96 715.39 L 202.93 709.14 L 220.87 703.18 L 239.92 697.50 L 260.12 692.09 L 280.38 687.23 L 301.55 682.70 L 323.68 678.51 L 345.83 674.81 L 368.70 671.49 L 392.32 668.57 L 415.94 666.12 L 440.08 664.09 L 464.76 662.47 L 489.43 661.32 L 514.42 660.63 L 539.71 660.40 L 565.01 660.63 L 589.99 661.32 L 614.67 662.47 L 639.33 664.09 L 663.48 666.12 L 687.11 668.57 L 710.72 671.49 L 733.59 674.81 L 755.74 678.51 L 777.86 682.70 L 799.05 687.23 L 819.29 692.09 L 839.50 697.50 L 858.56 703.18 L 876.49 709.14 L 893.46 715.39 L 908.98 721.70 L 923.12 728.07 L 935.98 734.48 L 946.59 740.31 L 956.21 746.09 L 964.90 751.82 L 972.72 757.50 L 979.74 763.12 L 986.97 769.60 L 993.20 775.93 L 998.51 782.13 L 1003.01 788.21 L 1006.76 794.19 L 1009.69 799.79 L 1012.01 805.30 L 1013.78 810.73 L 1015.00 816.09 L 1015.75 821.44 Z" fill="url(#linearGradient-3)" fill-opacity="0.061778482" fill-rule="nonzero" group-id="1,2,4,7" id="椭圆_16" node-id="45" stroke="none" target-height="332.8" target-width="952.5738" target-x="63.4262" target-y="660.4"/></g><g node-id="134"><path d="M 499.15 379.29 L 499.15 508.31 L 713.49 502.37 L 713.49 405.49 Z" fill="#dbdfe6" fill-rule="nonzero" group-id="1,2,4,8" id="路径_107" node-id="47" stroke="none" target-height="129.02002" target-width="214.34692" target-x="499.14557" target-y="379.28998"/><path d="M 499.15 379.29 L 499.15 508.31 L 327.02 502.37 L 327.02 417.37 Z" fill="#d0d7e0" fill-rule="nonzero" group-id="1,2,4,8" id="路径_108" node-id="48" stroke="none" target-height="129.02002" target-width="172.12543" target-x="327.02014" target-y="379.28998"/><path d="M 523.94 444.91 L 523.94 725.48 L 713.49 687.42 L 713.49 406.35 Z" fill="url(#linearGradient-4)" fill-rule="nonzero" group-id="1,2,4,8" id="路径_103" node-id="49" stroke="none" target-height="319.13" target-width="189.55267" target-x="523.9398" target-y="406.34998"/><path d="M 523.93 725.48 L 327.02 690.26 L 327.02 416.61 L 523.93 444.29 Z" fill="url(#linearGradient-5)" fill-rule="nonzero" group-id="1,2,4,8" id="路径_104" node-id="50" stroke="none" target-height="308.87" target-width="196.90991" target-x="327.02014" target-y="416.61"/><path d="M 327.02 416.61 L 271.55 470.99 L 464.96 506.09 L 524.78 444.30 Z" fill="url(#linearGradient-6)" fill-rule="nonzero" group-id="1,2,4,8" id="路径_105" node-id="51" stroke="none" target-height="89.47998" target-width="253.23126" target-x="271.54773" target-y="416.61"/><path d="M 580.37 502.37 L 770.41 460.85 L 713.97 406.48 L 522.97 444.04 Z" fill="url(#linearGradient-7)" fill-rule="nonzero" group-id="1,2,4,8" id="路径_106" node-id="52" stroke="none" target-height="95.890015" target-width="247.43524" target-x="522.9738" target-y="406.47998"/></g><path d="M 117.95 719.29 L 120.42 720.10 L 126.98 721.82 L 131.25 722.64 L 136.33 723.33 L 141.59 723.67 L 147.20 723.54 L 150.93 723.14 L 154.62 722.42 L 158.28 721.36 L 161.80 719.93 L 165.14 718.04 L 168.32 715.69 L 171.14 712.92 L 173.71 709.52 L 176.01 705.42 L 177.36 702.21 L 178.50 698.52 L 179.42 694.30 L 180.07 689.46 L 181.98 682.76 L 183.95 677.44 L 185.95 673.30 L 188.37 669.36 L 190.67 666.39 L 192.83 664.22 L 195.27 662.33 L 197.45 661.03 L 199.38 660.22 L 202.29 659.46 L 204.28 659.29 L 206.21 659.42 L 204.06 659.21 L 201.83 659.27 L 198.61 659.78 L 196.41 660.39 L 193.99 661.41 L 191.31 662.90 L 188.85 664.69 L 186.29 667.14 L 183.65 670.36 L 181.41 673.86 L 179.21 678.33 L 177.10 683.96 L 171.65 682.94 L 166.71 682.37 L 162.22 682.19 L 158.14 682.38 L 152.67 683.15 L 147.84 684.39 L 143.61 686.05 L 139.56 688.18 L 136.01 690.55 L 132.92 693.14 L 130.06 696.03 L 127.62 698.93 L 125.55 701.84 L 122.88 706.35 L 120.97 710.32 L 119.47 714.10 L 118.62 716.74 Z" fill="url(#linearGradient-8)" fill-rule="nonzero" group-id="1,2,4" id="路径_109" node-id="53" stroke="none" target-height="64.45996" target-width="88.258194" target-x="117.9521" target-y="659.21"/><path d="M 702.10 798.84 L 704.47 799.38 L 710.60 800.29 L 714.52 800.55 L 719.01 800.51 L 723.56 800.03 L 728.17 798.97 L 731.14 797.89 L 733.95 796.44 L 736.61 794.60 L 738.96 792.40 L 741.04 789.67 L 742.83 786.35 L 743.82 783.74 L 744.59 780.71 L 745.11 777.20 L 745.34 773.14 L 746.32 768.15 L 747.42 764.16 L 748.61 761.02 L 750.12 758.01 L 751.60 755.70 L 753.04 753.98 L 755.46 751.86 L 757.55 750.65 L 759.62 749.92 L 761.05 749.66 L 762.46 749.63 L 760.89 749.62 L 759.27 749.81 L 756.95 750.39 L 754.57 751.38 L 751.85 753.13 L 750.17 754.59 L 748.47 756.54 L 746.76 759.04 L 745.34 761.73 L 744.02 765.12 L 742.84 769.34 L 738.15 768.93 L 733.98 768.90 L 730.30 769.21 L 727.04 769.82 L 722.70 771.14 L 719.03 772.81 L 715.90 774.80 L 713.03 777.18 L 710.63 779.66 L 708.65 782.24 L 706.17 786.35 L 704.47 790.10 L 703.22 793.73 L 702.55 796.31 Z" fill="url(#linearGradient-9)" fill-rule="nonzero" group-id="1,2,4" id="路径_110" node-id="54" stroke="none" target-height="50.929993" target-width="60.360962" target-x="702.0955" target-y="749.62"/><path d="M 168.16 288.15 L 164.56 287.89 L 161.19 287.17 L 157.99 286.00 L 154.96 284.41 L 152.20 282.47 L 149.69 280.15 L 147.48 277.53 L 145.62 274.65 L 144.09 271.48 L 142.98 268.14 L 142.29 264.61 L 142.04 260.86 L 142.29 257.11 L 142.98 253.58 L 144.09 250.23 L 145.62 247.06 L 147.48 244.18 L 149.69 241.56 L 152.20 239.25 L 154.96 237.30 L 157.99 235.71 L 161.19 234.54 L 164.56 233.83 L 168.16 233.57 L 171.47 233.78 L 174.69 234.43 L 177.84 235.51 L 177.77 233.57 L 177.88 230.68 L 178.32 227.90 L 179.07 225.21 L 180.12 222.63 L 181.45 220.21 L 183.05 217.94 L 184.89 215.88 L 186.98 214.05 L 189.32 212.44 L 191.83 211.14 L 194.40 210.17 L 197.07 209.52 L 199.78 209.20 L 202.48 209.20 L 205.20 209.52 L 207.86 210.17 L 210.44 211.14 L 212.94 212.44 L 215.28 214.05 L 217.36 215.88 L 219.22 217.94 L 220.82 220.21 L 222.14 222.63 L 223.19 225.21 L 223.94 227.90 L 224.38 230.68 L 224.50 233.57 L 224.30 236.72 L 223.73 239.79 L 222.77 242.80 L 225.58 241.29 L 228.55 240.20 L 231.63 239.53 L 234.80 239.31 L 238.02 239.61 L 241.05 240.29 L 243.91 241.37 L 246.63 242.82 L 249.10 244.57 L 251.34 246.64 L 253.31 248.97 L 254.97 251.54 L 256.33 254.34 L 257.32 257.30 L 257.93 260.42 L 258.15 263.73 L 257.93 267.04 L 257.32 270.16 L 256.33 273.12 L 254.97 275.92 L 253.31 278.49 L 251.34 280.82 L 249.10 282.89 L 246.63 284.64 L 243.91 286.09 L 241.05 287.17 L 238.02 287.85 L 234.80 288.15 Z" fill="url(#linearGradient-10)" fill-opacity="0.2" fill-rule="nonzero" group-id="1,2,4" id="联合_70" node-id="55" stroke="none" target-height="78.95" target-width="116.1066" target-x="142.04382" target-y="209.2"/></g></g><g node-id="129"><g node-id="131"><path d="M 646.73 185.16 L 643.82 184.08 L 636.08 181.76 L 631.02 180.59 L 625.01 179.56 L 618.74 178.94 L 612.08 178.85 L 607.61 179.16 L 603.19 179.87 L 598.79 180.97 L 594.54 182.53 L 590.49 184.63 L 586.61 187.30 L 583.98 189.61 L 581.51 192.34 L 579.20 195.52 L 577.04 199.20 L 575.31 202.96 L 573.80 207.30 L 572.54 212.30 L 571.56 218.03 L 569.48 224.64 L 567.38 230.09 L 565.28 234.52 L 562.81 238.79 L 560.46 242.19 L 558.20 244.84 L 555.67 247.26 L 553.34 249.08 L 551.19 250.40 L 547.85 251.88 L 545.11 252.61 L 542.55 252.92 L 540.83 252.91 L 539.22 252.69 L 541.02 252.97 L 542.93 253.08 L 545.77 252.96 L 548.83 252.48 L 552.51 251.40 L 554.93 250.37 L 557.51 248.93 L 560.25 247.01 L 562.78 244.83 L 565.37 242.04 L 568.03 238.54 L 570.34 234.82 L 572.63 230.26 L 574.87 224.71 L 581.32 226.15 L 587.18 227.05 L 592.52 227.45 L 597.37 227.40 L 602.36 226.94 L 606.91 226.15 L 611.06 225.05 L 614.84 223.65 L 619.74 221.28 L 624.06 218.61 L 627.85 215.65 L 631.36 212.34 L 634.39 208.99 L 636.97 205.61 L 640.33 200.35 L 642.77 195.71 L 644.71 191.26 L 645.83 188.16 L 646.73 185.16 Z" fill="url(#linearGradient-11)" fill-rule="nonzero" group-id="1,3,5" id="路径_72备份" node-id="57" stroke="none" target-height="74.2348" target-width="107.510376" target-x="539.21625" target-y="178.84592"/></g><path d="M 392.62 364.60 L 399.38 366.51 L 405.79 367.91 L 411.85 368.84 L 417.60 369.31 L 423.50 369.40 L 428.98 369.11 L 434.07 368.46 L 438.80 367.48 L 443.55 366.11 L 447.82 364.48 L 451.65 362.62 L 455.08 360.54 L 458.35 358.08 L 461.10 355.48 L 463.39 352.76 L 465.26 349.90 L 466.73 346.79 L 467.70 343.62 L 468.19 340.37 L 468.18 336.98 L 467.68 333.68 L 466.64 330.31 L 465.00 326.84 L 462.70 323.22 L 460.24 320.41 L 458.04 318.67 L 456.04 317.73 L 453.88 317.36 L 451.91 317.56 L 450.06 318.34 L 448.39 319.56 L 446.91 321.16 L 445.59 323.22 L 444.59 325.47 L 443.88 327.90 L 443.47 330.57 L 443.43 333.25 L 443.78 335.91 L 444.54 338.56 L 445.72 341.03 L 447.39 343.30 L 449.62 345.39 L 451.49 346.64 L 453.73 347.71 L 456.40 348.59 L 459.55 349.23 L 462.61 349.51 L 466.18 349.49 L 470.34 349.09 L 475.17 348.27 L 481.32 346.72 L 488.64 344.26 L 497.31 340.70 L 512.93 329.68 L 520.24 324.28 L 527.19 318.64 L 531.61 314.66 L 535.97 310.27 L 540.27 305.44 L 544.26 300.37 L 548.28 294.55 L 552.33 287.90 L 555.99 281.06 L 559.73 273.08 L 563.55 263.85" fill="none" group-id="1,3,6" id="路径-2" node-id="58" stroke="#bcc2c9" stroke-dasharray="2 2" stroke-linecap="round" stroke-width="1" target-height="105.54404" target-width="170.9347" target-x="392.61792" target-y="263.85428"/></g></g></svg>