<svg width="12" height="12" viewBox="0 0 12 12" fill="none" xmlns="http://www.w3.org/2000/svg">
<g clip-path="url(#clip0_2311_2)">
<path d="M5.25 0.75C5.25 0.335786 5.5858 0 6 0C6.4142 0 6.75 0.335786 6.75 0.75V1.25C6.75 1.66421 6.4142 2 6 2C5.5858 2 5.25 1.66421 5.25 1.25V0.75Z" fill="#A9A9AB"/>
<path d="M5.25 10.75C5.25 10.3358 5.5858 10 6 10C6.4142 10 6.75 10.3358 6.75 10.75V11.25C6.75 11.6642 6.4142 12 6 12C5.5858 12 5.25 11.6642 5.25 11.25V10.75Z" fill="#A9A9AB"/>
<path d="M12 6C12 5.5858 11.6642 5.25 11.25 5.25H10.75C10.3358 5.25 10 5.5858 10 6C10 6.4142 10.3358 6.75 10.75 6.75H11.25C11.6642 6.75 12 6.4142 12 6Z" fill="#A9A9AB"/>
<path d="M1.25 5.25C1.66421 5.25 2 5.5858 2 6C2 6.4142 1.66421 6.75 1.25 6.75H0.75C0.335786 6.75 0 6.4142 0 6C0 5.5858 0.335786 5.25 0.75 5.25H1.25Z" fill="#A9A9AB"/>
<path d="M10.2428 1.75733C9.94986 1.46443 9.47496 1.46443 9.18211 1.75733L8.82856 2.11088C8.53566 2.40377 8.53566 2.87865 8.82856 3.17154C9.12141 3.46444 9.59631 3.46444 9.88921 3.17154L10.2428 2.81799C10.5357 2.5251 10.5357 2.05022 10.2428 1.75733Z" fill="#A9A9AB"/>
<path d="M2.11082 8.82844C2.40372 8.53554 2.87859 8.53554 3.17148 8.82844C3.46438 9.12129 3.46438 9.59619 3.17148 9.88909L2.81793 10.2426C2.52504 10.5355 2.05016 10.5355 1.75727 10.2426C1.46438 9.94974 1.46438 9.47484 1.75727 9.18199L2.11082 8.82844Z" fill="#A9A9AB"/>
<path d="M1.75727 1.75733C1.46437 2.05022 1.46437 2.5251 1.75727 2.81799L2.11082 3.17155C2.40371 3.46444 2.87859 3.46444 3.17148 3.17155C3.46437 2.87865 3.46437 2.40377 3.17148 2.11088L2.81793 1.75733C2.52503 1.46443 2.05016 1.46443 1.75727 1.75733Z" fill="#A9A9AB"/>
<path d="M8.82856 9.88909C8.53566 9.59619 8.53566 9.12129 8.82856 8.82844C9.12141 8.53554 9.59631 8.53554 9.88921 8.82844L10.2428 9.18199C10.5357 9.47484 10.5357 9.94974 10.2428 10.2426C9.94986 10.5355 9.47496 10.5355 9.18211 10.2426L8.82856 9.88909Z" fill="#A9A9AB"/>
<path d="M6 9.5C7.933 9.5 9.5 7.933 9.5 6C9.5 4.06701 7.933 2.5 6 2.5C4.06701 2.5 2.5 4.06701 2.5 6C2.5 7.933 4.06701 9.5 6 9.5Z" fill="#A9A9AB"/>
</g>
<defs>
<clipPath id="clip0_2311_2">
<rect width="12" height="12" fill="white"/>
</clipPath>
</defs>
</svg>
