<svg xmlns="http://www.w3.org/2000/svg" xmlns:xlink="http://www.w3.org/1999/xlink" width="276" height="100" viewBox="0 0 276 100" fill="none"><g opacity="1"  transform="translate(0 0)  rotate(0)"><mask id="bg-mask-0" fill="white"><use transform="translate(0 0)  rotate(0)" xlink:href="#path_0"></use></mask><g mask="url(#bg-mask-0)" ><path id="矩形 1" fill-rule="evenodd" fill="url(#linear_0)" opacity="1" d="M20,100c-11.05,0 -20,-8.95 -20,-20v-60c0,-11.05 8.95,-20 20,-20h60c11.05,0 20,8.95 20,20v60c0,11.05 -8.95,20 -20,20z"></path><path id="路径 1" fill-rule="evenodd" style="fill:#FFFFFF" opacity="1" d="M82.1197,48.6c1.12,1.67 1.38,3.61 0.73,5.43l3.2,2.55l-2.46,1.92l-1.85,-1.46c-0.1,0.24 -0.35,0.43 -0.35,0.62c-2.84,5.07 -6.8,9.7 -11.69,13.7c-3.93,3.23 -8.55,5.89 -13.66,7.87c-6.76,2.09 -14,3.02 -21.25,2.71c-5.32,-0.01 -10.63,-0.27 -15.9,-0.78l0.42,-2.72c3.52,0.25 15.75,-7.13 23.61,-12.77c-3.49,-2.22 -6.52,-4.86 -8.94,-7.82c-4.32,-4.59 -6.03,-10.37 -4.72,-15.98c1.55,-2.9 3.7,-5.58 6.36,-7.94c2.96,8.87 9.81,24.93 22.4,32.2l2.08,-2.17c-12.48,-7.25 -19.16,-24.58 -21.7,-32.56c5.66,-4.52 12.01,-8.46 18.92,-11.75l3.48,-1.65l-0.97,3.12c-1.18,5.59 -0.88,11.32 0.87,16.82c1.09,4.01 2.59,7.95 4.48,11.77c2.84,-2.22 6.66,-3.52 10.68,-3.63c2.5,-0.05 4.87,0.9 6.26,2.52z"></path><g opacity="1" transform="translate(115 0)  rotate(0)"><a xlink:href="https://" xlink:title="跳转" target="_blank"><text><tspan x="0" y="80.57000000000001" font-size="70" line-height="0" fill="#07C160" opacity="1" font-family="SourceHanSerifCN-Heavy" font-weight="Heavy" letter-spacing="0" >青邮</tspan></text></a></g></g></g><defs><rect id="path_0" x="0" y="0" width="276" height="100" /><linearGradient id="linear_0" x1="82.5%" y1="0%" x2="30%" y2="122%" gradientUnits="objectBoundingBox"><stop offset="0" stop-color="#00ED73" stop-opacity="1" /><stop offset="0.1728" stop-color="#00DE6F" stop-opacity="1" /><stop offset="0.4371" stop-color="#04D468" stop-opacity="1" /><stop offset="1" stop-color="#006633" stop-opacity="1" /><stop offset="1.02" stop-color="#106B3C" stop-opacity="1" /><stop offset="1.03" stop-color="#0C6638" stop-opacity="1" /></linearGradient></defs></svg>