<svg xmlns="http://www.w3.org/2000/svg" xmlns:xlink="http://www.w3.org/1999/xlink" width="100" height="100" viewBox="0 0 100 100" fill="none"><g opacity="1"  transform="translate(0 0)  rotate(0)"><mask id="bg-mask-0" fill="white"><use transform="translate(0 0)  rotate(0)" xlink:href="#path_0"></use></mask><g mask="url(#bg-mask-0)" ><path id="矩形 1" fill-rule="evenodd" fill="url(#linear_0)" opacity="1" d="M20,100c-11.05,0 -20,-8.95 -20,-20v-60c0,-11.05 8.95,-20 20,-20h60c11.05,0 20,8.95 20,20v60c0,11.05 -8.95,20 -20,20z"></path><path id="路径 1" fill-rule="evenodd" style="fill:#FFFFFF" opacity="1" d="M78.25,48.6c1.07,1.67 1.32,3.61 0.7,5.43l3.05,2.55l-2.35,1.92l-1.76,-1.46c-0.1,0.24 -0.33,0.43 -0.33,0.62c-2.71,5.07 -6.48,9.7 -11.14,13.7c-3.75,3.23 -8.15,5.89 -13.02,7.87c-6.44,2.09 -13.34,3.02 -20.25,2.71c-5.07,-0.01 -10.13,-0.27 -15.15,-0.78l0.4,-2.72c3.35,0.25 15.01,-7.13 22.5,-12.77c-3.33,-2.22 -6.21,-4.86 -8.52,-7.82c-4.12,-4.59 -5.75,-10.37 -4.5,-15.98c1.48,-2.9 3.53,-5.58 6.06,-7.94c2.82,8.87 9.35,24.93 21.35,32.2l1.98,-2.17c-11.89,-7.25 -18.26,-24.58 -20.68,-32.56c5.39,-4.52 11.45,-8.46 18.03,-11.75l3.32,-1.65l-0.93,3.12c-1.12,5.59 -0.84,11.32 0.83,16.82c1.04,4.01 2.47,7.95 4.27,11.77c2.71,-2.22 6.35,-3.52 10.18,-3.63c2.38,-0.05 4.64,0.9 5.96,2.52z"></path></g></g><defs><rect id="path_0" x="0" y="0" width="100" height="100" /><linearGradient id="linear_0" x1="82.5%" y1="0%" x2="30%" y2="122%" gradientUnits="objectBoundingBox"><stop offset="0" stop-color="#00ED73" stop-opacity="1" /><stop offset="0.4397" stop-color="#00A14E" stop-opacity="1" /><stop offset="0.816" stop-color="#00793C" stop-opacity="1" /><stop offset="1" stop-color="#006633" stop-opacity="1" /><stop offset="1.01" stop-color="#106B3C" stop-opacity="1" /><stop offset="1.02" stop-color="#0C6638" stop-opacity="1" /></linearGradient></defs></svg>