<svg xmlns="http://www.w3.org/2000/svg" xmlns:xlink="http://www.w3.org/1999/xlink" width="300" height="132" viewBox="0 0 300 132" fill="none"><g opacity="1"  transform="translate(0 0)  rotate(0)"><rect fill="#FFFFFF" opacity="0" transform="translate(0 0)  rotate(0)" x="0" y="0" width="300" height="132" /><mask id="bg-mask-0" fill="white"><use transform="translate(0 0)  rotate(0)" xlink:href="#path_0"></use></mask><g mask="url(#bg-mask-0)" ><path id="矩形 1" fill-rule="evenodd" fill="url(#linear_0)" opacity="1" d="M10 132L290 132C295.52 132 300 127.52 300 122L300 10C300 4.48 295.52 0 290 0L10 0C4.48 0 0 4.48 0 10L0 122C0 127.52 4.48 132 10 132Z"></path><path id="路径 1" fill-rule="evenodd" style="fill:#FFFFFF" opacity="1" d="M108.73 64.03C106.86 61.75 103.7 60.41 100.34 60.49C94.95 60.64 89.84 62.47 86.04 65.6C83.5 60.22 81.49 54.68 80.02 49.04C77.67 41.3 77.28 33.25 78.86 25.39L80.16 21L75.5 23.33C66.24 27.94 57.72 33.49 50.15 39.85C53.55 51.06 62.5 75.44 79.23 85.63L76.43 88.68C59.56 78.46 50.38 55.87 46.42 43.39C42.86 46.72 39.98 50.49 37.89 54.57C36.14 62.46 38.43 70.59 44.23 77.04C47.48 81.21 51.52 84.92 56.21 88.03C45.67 95.97 29.27 106.34 24.56 106L24 109.82C31.07 110.54 38.18 110.91 45.3 110.92C55.02 111.35 64.73 110.04 73.78 107.11C80.62 104.32 86.82 100.58 92.09 96.04C98.65 90.42 103.95 83.9 107.75 76.78C107.75 76.51 108.08 76.24 108.22 75.9L110.69 77.96L114 75.25L109.71 71.66C110.58 69.11 110.23 66.38 108.73 64.03Z"></path><g opacity="1" transform="translate(131 15)  rotate(0)"><a xlink:href="https://" xlink:title="跳转" target="_blank"><text><tspan x="0" y="79.8" font-size="76" line-height="0" fill="#FFFFFF" opacity="1" font-family="AlimamaShuHeiTi-Regular" font-weight="Regular" letter-spacing="0" >青邮</tspan></text></a></g></g></g><defs><rect id="path_0" x="0" y="0" width="300" height="132" /><linearGradient id="linear_0" x1="0%" y1="117.803%" x2="107.33299999999998%" y2="-49.197%" gradientUnits="objectBoundingBox"><stop offset="0" stop-color="#007337" stop-opacity="1" /><stop offset="0.5206" stop-color="#00EB71" stop-opacity="1" /><stop offset="0.9167" stop-color="#03D86A" stop-opacity="1" /><stop offset="1" stop-color="#04D468" stop-opacity="1" /></linearGradient></defs></svg>