<svg height="4000" node-id="1" sillyvg="true" template-height="4000" template-width="4000" version="1.1" viewBox="0 0 4000 4000" width="4000" xmlns="http://www.w3.org/2000/svg" xmlns:xlink="http://www.w3.org/1999/xlink"><defs node-id="116"><linearGradient gradientUnits="userSpaceOnUse" id="SVGID_1_" node-id="6" spreadMethod="pad" x1="2178.6296" x2="2178.6296" y1="2403.7004" y2="2819.1865"><stop offset="0" stop-color="#65e884"/><stop offset="1" stop-color="#ebf0f7"/></linearGradient><linearGradient gradientUnits="userSpaceOnUse" id="SVGID_2_" node-id="30" spreadMethod="pad" x1="123.8181" x2="3863.6082" y1="3045.1753" y2="3045.1753"><stop offset="0" stop-color="#03a051"/><stop offset="1" stop-color="#9ad99a"/></linearGradient><linearGradient gradientUnits="userSpaceOnUse" id="SVGID_3_" node-id="47" spreadMethod="pad" x1="3308.861" x2="3590.9487" y1="1254.116" y2="1254.116"><stop offset="0" stop-color="#03a051"/><stop offset="1" stop-color="#50f26a"/></linearGradient></defs><g node-id="371"><path d="M 967.00 2950.20 C 980.30 2900.00 914.30 2672.70 1118.70 2552.50 C 1325.00 2431.10 1519.40 2512.50 1734.40 2659.30 C 1768.00 2629.00 1969.80 2415.50 2262.20 2440.00 C 2509.10 2460.70 2662.70 2608.90 2702.00 2649.30 C 2791.50 2513.40 2941.80 2440.40 3078.10 2467.30 C 3265.60 2504.20 3340.60 2713.10 3360.20 2767.60 C 3382.20 2828.90 3388.80 2883.70 3390.50 2922.30 C 2515.90 2933.50 1841.50 2939.10 967.00 2950.20 Z" fill="url(#SVGID_1_)" fill-rule="nonzero" group-id="1" node-id="141" stroke="none" target-height="534.69995" target-width="2476.2" target-x="914.3" target-y="2415.5"/><g node-id="372"><path d="M 3214.70 2384.30 C 3225.50 2389.90 3234.90 2395.60 3243.00 2401.20 C 3301.40 2441.40 3294.00 2479.70 3246.90 2501.30 C 3220.20 2515.50 3135.00 2437.70 3090.60 2459.00 C 3059.70 2473.80 3041.30 2509.10 3033.00 2529.10 C 3029.40 2537.80 3027.70 2543.50 3027.70 2543.50 C 3027.70 2543.50 3029.00 2497.50 3016.50 2470.80 C 3016.50 2470.80 2924.60 2296.30 3016.50 2259.50 C 3073.50 2239.20 3082.40 2305.70 3083.20 2312.40 C 3082.40 2302.40 3072.20 2157.20 3164.60 2150.00 C 3164.60 2150.00 3213.80 2150.00 3212.50 2189.30 C 3264.40 2114.90 3366.50 2157.80 3345.60 2215.60 C 3325.40 2271.50 3257.80 2291.80 3253.40 2293.10 C 3256.80 2292.30 3296.80 2283.30 3324.40 2295.40 C 3342.50 2303.30 3355.20 2320.30 3348.90 2354.60 C 3342.50 2394.60 3272.70 2381.60 3235.50 2381.10 C 3235.50 2381.10 3235.40 2381.10 3235.40 2381.10 C 3230.30 2381.00 3225.70 2381.20 3222.10 2381.70 C 3218.90 2382.10 3216.30 2383.00 3214.70 2384.30 Z" fill="#00593b" fill-rule="nonzero" group-id="1,2" node-id="145" stroke="none" target-height="428.6001" target-width="441.8999" target-x="2924.6" target-y="2114.9"/><path d="M 3260.30 2198.90 C 3260.30 2198.90 3043.20 2323.30 3027.40 2548.20" fill="none" group-id="1,2" node-id="147" stroke="#134411" stroke-linecap="round" stroke-width="3" target-height="349.30005" target-width="232.90015" target-x="3027.4" target-y="2198.9"/><path d="M 3226.80 2444.10 C 3226.80 2444.10 3125.10 2352.60 3061.60 2416.60" fill="none" group-id="1,2" node-id="149" stroke="#134411" stroke-linecap="round" stroke-width="3" target-height="91.5" target-width="165.19995" target-x="3061.6" target-y="2352.6"/><path d="M 3282.70 2325.20 C 3282.70 2325.20 3168.40 2298.30 3099.50 2352.80" fill="none" group-id="1,2" node-id="151" stroke="#134411" stroke-linecap="round" stroke-width="3" target-height="54.5" target-width="183.19995" target-x="3099.5" target-y="2298.3"/><path d="M 3156.10 2184.90 C 3156.10 2184.90 3172.40 2240.40 3145.60 2293.60" fill="none" group-id="1,2" node-id="153" stroke="#134411" stroke-linecap="round" stroke-width="3" target-height="108.700195" target-width="26.799805" target-x="3145.6" target-y="2184.9"/><path d="M 3032.60 2305.40 C 3032.60 2305.40 3058.50 2372.70 3048.50 2444.90" fill="none" group-id="1,2" node-id="155" stroke="#1a1a1a" stroke-linecap="round" stroke-width="3" target-height="139.5" target-width="25.899902" target-x="3032.6" target-y="2305.4"/><path d="M 3246.90 2501.30 C 3220.20 2515.50 3135.00 2437.70 3090.60 2459.00 C 3059.70 2473.80 3041.30 2509.10 3033.00 2529.10 C 3035.20 2495.20 3047.80 2450.00 3096.60 2435.50 C 3178.10 2411.30 3267.80 2512.60 3243.00 2401.20 C 3301.40 2441.40 3294.00 2479.70 3246.90 2501.30 Z" fill="#339e7e" fill-rule="nonzero" group-id="1,2" node-id="157" stroke="none" target-height="127.90015" target-width="268.3999" target-x="3033" target-y="2401.2"/><path d="M 3235.60 2381.00 C 3270.30 2378.30 3358.10 2364.70 3323.30 2295.70 C 3323.70 2295.60 3324.10 2295.40 3324.50 2295.30 C 3342.60 2303.20 3355.30 2320.20 3349.00 2354.50 C 3342.60 2394.50 3272.80 2381.50 3235.60 2381.00 Z" fill="#339e7e" fill-rule="nonzero" group-id="1,2" node-id="159" stroke="none" target-height="99.19995" target-width="122.5" target-x="3235.6" target-y="2295.3"/></g><g node-id="373"><path d="M 3344.20 2429.30 C 3254.40 2465.10 3284.80 2615.70 3199.00 2659.30 C 3199.00 2659.30 3200.10 2659.30 3202.30 2659.50 C 3207.30 2658.60 3213.00 2657.70 3219.20 2656.80 C 3248.30 2652.90 3396.30 2665.50 3453.10 2763.80 C 3509.20 2861.00 3550.60 2812.10 3551.60 2811.00 C 3551.60 2811.00 3551.60 2811.00 3551.60 2811.00 C 3555.40 2786.50 3546.30 2752.90 3515.70 2713.00 C 3616.70 2717.80 3617.10 2846.10 3696.50 2759.80 C 3747.60 2704.20 3686.30 2660.90 3684.20 2659.50 C 3688.10 2661.00 3884.90 2715.20 3875.90 2590.70 C 3863.80 2425.30 3687.20 2546.40 3684.90 2548.50 C 3686.20 2546.70 3739.50 2467.30 3662.60 2416.90 C 3592.10 2370.70 3551.70 2438.50 3544.80 2451.70 C 3549.90 2440.80 3569.10 2391.50 3509.50 2368.70 C 3443.00 2343.30 3394.10 2484.40 3393.00 2487.40 C 3393.30 2485.40 3407.00 2404.30 3344.20 2429.30 Z" fill="#339e7e" fill-rule="nonzero" group-id="1,3" node-id="164" stroke="none" target-height="517.69995" target-width="685.8999" target-x="3199" target-y="2343.3"/><path d="M 3199.00 2659.30 C 3346.30 2569.70 3417.80 2584.90 3503.10 2624.20 C 3588.40 2663.50 3742.00 2588.10 3742.00 2588.10" fill="none" group-id="1,3" node-id="166" stroke="#ffffff" stroke-linecap="round" stroke-width="3" target-height="93.80005" target-width="543" target-x="3199" target-y="2569.7"/><path d="M 3653.50 2482.70 C 3653.50 2482.70 3620.20 2627.40 3497.80 2622.00" fill="none" group-id="1,3" node-id="168" stroke="#ffffff" stroke-linecap="round" stroke-width="3" target-height="144.69995" target-width="155.69995" target-x="3497.8" target-y="2482.7"/><path d="M 3499.30 2420.00 C 3499.30 2420.00 3509.90 2578.20 3400.30 2593.70" fill="none" group-id="1,3" node-id="170" stroke="#ffffff" stroke-linecap="round" stroke-width="3" target-height="173.69995" target-width="109.59985" target-x="3400.3" target-y="2420"/><path d="M 3644.70 2701.40 C 3644.70 2701.40 3614.60 2646.50 3570.60 2635.50" fill="none" group-id="1,3" node-id="172" stroke="#ffffff" stroke-linecap="round" stroke-width="3" target-height="65.8999" target-width="74.09985" target-x="3570.6" target-y="2635.5"/><path d="M 3444.80 2712.70 C 3444.80 2712.70 3422.90 2615.40 3344.00 2597.20" fill="none" group-id="1,3" node-id="174" stroke="#ffffff" stroke-linecap="round" stroke-width="3" target-height="115.5" target-width="100.80005" target-x="3344" target-y="2597.2"/><path d="M 3348.20 2496.50 C 3348.20 2496.50 3345.80 2590.10 3302.10 2608.50" fill="none" group-id="1,3" node-id="176" stroke="#ffffff" stroke-linecap="round" stroke-width="3" target-height="112" target-width="46.099854" target-x="3302.1" target-y="2496.5"/><path d="M 3202.30 2659.50 C 3225.70 2661.10 3366.90 2675.40 3420.00 2788.30 C 3460.80 2875.00 3542.60 2869.00 3551.60 2811.00 C 3550.60 2812.10 3509.20 2861.00 3453.10 2763.80 C 3396.30 2665.50 3248.30 2652.90 3219.20 2656.80 C 3213.00 2657.70 3207.30 2658.60 3202.30 2659.50 Z" fill="#127755" fill-rule="nonzero" group-id="1,3" node-id="178" stroke="none" target-height="222.1001" target-width="349.30005" target-x="3202.3" target-y="2652.9"/><path d="M 3703.90 2679.20 C 3728.40 2723.70 3676.20 2809.40 3610.30 2753.90 C 3541.70 2696.30 3515.70 2713.00 3515.70 2713.00 C 3515.70 2713.00 3609.00 2806.70 3673.40 2790.70 C 3709.20 2781.80 3751.20 2725.10 3703.90 2679.20 Z" fill="#127755" fill-rule="nonzero" group-id="1,3" node-id="180" stroke="none" target-height="130.19995" target-width="235.5" target-x="3515.7" target-y="2679.2"/><path d="M 3202.30 2659.50 C 3202.30 2659.50 3102.30 2746.00 3083.30 2718.30 C 3064.30 2690.60 3217.40 2648.40 3217.40 2648.40 L 3202.30 2659.50 Z" fill="#1a1a1a" fill-rule="nonzero" group-id="1,3" node-id="182" stroke="none" target-height="97.6001" target-width="153.09985" target-x="3064.3" target-y="2648.4"/></g><path d="M 2194.40 2775.70 C 2054.50 2775.70 1918.70 2778.60 1788.90 2783.90 C 1628.80 2769.20 1445.20 2760.80 1249.90 2760.80 C 628.00 2760.80 123.80 2845.60 123.80 2950.20 C 123.80 3010.10 289.40 3063.60 547.90 3098.30 C 679.30 3229.50 1366.50 3329.50 2194.40 3329.50 C 3116.30 3329.50 3863.60 3205.50 3863.60 3052.60 C 3863.60 2899.70 3116.30 2775.70 2194.40 2775.70 Z" fill="url(#SVGID_2_)" fill-rule="nonzero" group-id="1" node-id="185" stroke="none" target-height="568.69995" target-width="3739.8" target-x="123.8" target-y="2760.8"/><path d="M 848.60 2929.40 L 586.90 3045.20 L 1846.00 3066.60 L 1457.10 2890.50 C 1457.10 2890.50 1723.70 2861.90 1770.40 2822.30 C 1788.90 2783.90 1788.90 2783.90 1788.90 2783.90 C 1788.90 2783.90 1141.60 2715.30 882.20 2774.00 C 1019.50 2828.40 1071.30 2919.00 848.60 2929.40 Z" fill="#152a52" fill-opacity="0.5" fill-rule="nonzero" group-id="1,4" node-id="189" stroke="none" target-height="351.30005" target-width="1259.1" target-x="586.9" target-y="2715.3"/><path d="M 3376.90 2970.90 C 3376.90 2996.28 3315.93 3020.62 3207.40 3038.57 C 3098.88 3056.52 2951.68 3066.60 2798.20 3066.60 C 2644.72 3066.60 2497.52 3056.52 2389.00 3038.57 C 2280.47 3020.62 2219.50 2996.28 2219.50 2970.90 C 2219.50 2945.52 2280.47 2921.18 2389.00 2903.23 C 2497.52 2885.28 2644.72 2875.20 2798.20 2875.20 C 2951.68 2875.20 3098.88 2885.28 3207.40 2903.23 C 3315.93 2921.18 3376.90 2945.52 3376.90 2970.90 Z" fill="#152a52" fill-opacity="0.5" fill-rule="nonzero" group-id="1,5" node-id="194" stroke="none" target-height="191.40015" target-width="1157.3999" target-x="2219.5" target-y="2875.2"/><path d="M 1233.80 1369.40 L 1233.80 2878.40 L 1311.80 2878.40 L 1311.80 1372.00 Z" fill="#ccc4cc" fill-rule="nonzero" group-id="1" node-id="197" stroke="none" target-height="1508.9999" target-width="78" target-x="1233.8" target-y="1369.4"/><path d="M 1200.20 1369.40 L 1200.20 2878.40 L 1240.30 2878.40 L 1240.30 1372.00 Z" fill="#666266" fill-rule="nonzero" group-id="1" node-id="199" stroke="none" target-height="1508.9999" target-width="40.100098" target-x="1200.2" target-y="1369.4"/><path d="M 2191.50 2265.40 L 2376.00 2131.10 L 2347.30 2347.40 L 2300.20 2253.30 Z" fill="#d1334a" fill-rule="nonzero" group-id="1" node-id="201" stroke="none" target-height="216.2998" target-width="184.5" target-x="2191.5" target-y="2131.1"/><path d="M 2094.10 1731.50 L 2158.80 1582.20 L 2219.50 1725.60 L 2156.50 1684.80 Z" fill="#d1334a" fill-rule="nonzero" group-id="1" node-id="203" stroke="none" target-height="149.30005" target-width="125.3999" target-x="2094.1" target-y="1582.2"/><path d="M 3123.50 884.60 L 3543.40 884.60 C 3581.90 884.60 3613.00 853.40 3613.00 815.00 L 3613.00 752.90 C 3613.00 714.40 3581.80 683.30 3543.40 683.30 L 3123.50 683.30 C 3085.00 683.30 3053.90 714.50 3053.90 752.90 L 3075.10 976.20 C 3075.10 976.10 3123.10 888.20 3123.50 884.60 Z" fill="#ccc4cc" fill-rule="nonzero" group-id="1,6" node-id="207" stroke="none" target-height="292.90002" target-width="559.1001" target-x="3053.9" target-y="683.3"/><path d="M 3151.30 871.91 L 3571.20 871.91 C 3609.70 871.91 3640.80 840.71 3640.80 802.31 L 3640.80 740.21 C 3640.80 701.71 3609.60 670.61 3571.20 670.61 L 3151.30 670.61 C 3112.80 670.61 3081.70 701.81 3081.70 740.21 L 3081.70 973.41 C 3081.70 996.11 3135.50 871.91 3151.30 871.91 Z" fill="#ffffff" fill-rule="nonzero" group-id="1,6" node-id="209" stroke="none" target-height="325.5" target-width="559.09985" target-x="3081.699" target-y="670.611"/><path d="M 3576.11 726.96 L 3129.51 726.96 L 3129.51 710.76 L 3576.11 710.76 Z" fill="#24d224" fill-rule="nonzero" group-id="1,6,13" node-id="213" stroke="none" target-height="16.200012" target-width="446.59985" target-x="3129.5066" target-y="710.7643"/><path d="M 3576.11 779.32 L 3129.51 779.32 L 3129.51 763.12 L 3576.11 763.12 Z" fill="#24d224" fill-rule="nonzero" group-id="1,6,14" node-id="218" stroke="none" target-height="16.200012" target-width="446.59985" target-x="3129.5066" target-y="763.12384"/><path d="M 3576.11 831.68 L 3129.51 831.68 L 3129.51 815.48 L 3576.11 815.48 Z" fill="#24d224" fill-rule="nonzero" group-id="1,6,15" node-id="223" stroke="none" target-height="16.200012" target-width="446.59985" target-x="3129.5066" target-y="815.4831"/><path d="M 3590.90 1254.10 C 3590.90 1284.80 3581.10 1313.20 3564.50 1336.30 C 3538.90 1371.90 3497.10 1395.20 3449.90 1395.20 C 3372.00 1395.20 3308.90 1332.00 3308.90 1254.10 C 3308.90 1176.20 3372.10 1113.00 3449.90 1113.00 C 3495.20 1113.00 3535.50 1134.40 3561.40 1167.60 C 3579.90 1191.50 3590.90 1221.50 3590.90 1254.10 Z" fill="url(#SVGID_3_)" fill-rule="nonzero" group-id="1,7" node-id="229" stroke="none" target-height="282.19995" target-width="282" target-x="3308.9" target-y="1113"/><path d="M 3590.90 1254.10 C 3590.90 1284.80 3581.10 1313.20 3564.50 1336.30 L 3449.90 1254.10 L 3561.40 1167.60 C 3579.90 1191.50 3590.90 1221.50 3590.90 1254.10 Z" fill="#b4ffb1" fill-rule="nonzero" group-id="1,7" node-id="231" stroke="none" target-height="168.70007" target-width="141" target-x="3449.9" target-y="1167.6"/><path d="M 678.90 2293.60 C 678.90 2293.60 683.70 2295.00 692.90 2297.50" fill="none" group-id="1,8,16" node-id="238" stroke="#1a1a1a" stroke-linecap="round" stroke-width="2" target-height="3.8999023" target-width="14" target-x="678.9" target-y="2293.6"/><path d="M 720.90 2305.00 C 984.10 2372.80 2389.90 2687.30 2298.90 1643.60 C 2208.10 603.80 1362.20 866.10 1199.50 926.50" fill="none" group-id="1,8,16" node-id="240" stroke="#1a1a1a" stroke-dasharray="12.0371 12.0371" stroke-linecap="round" stroke-width="2" target-height="2083.5" target-width="1668.9999" target-x="720.9" target-y="603.8"/><path d="M 1185.90 931.70 C 1177.10 935.10 1172.50 937.20 1172.50 937.20" fill="none" group-id="1,8,16" node-id="242" stroke="#1a1a1a" stroke-linecap="round" stroke-width="2" target-height="5.5" target-width="13.400024" target-x="1172.5" target-y="931.7"/><path d="M 607.90 2190.70 L 822.10 2326.20 L 586.80 2383.90 L 664.80 2297.50 Z" fill="#d1334a" fill-rule="nonzero" group-id="1" node-id="246" stroke="none" target-height="193.19995" target-width="235.29999" target-x="586.8" target-y="2190.7"/><path d="M 2273.60 1290.40 C 2228.70 1262.60 2202.70 1221.70 2178.90 1179.20 C 2174.90 1187.70 2173.10 1196.40 2175.20 1203.40 C 2191.90 1261.40 2300.60 1407.20 2467.70 1391.20 C 2557.80 1382.60 2605.90 1362.20 2631.10 1345.40 C 2507.80 1358.50 2382.90 1360.20 2273.60 1290.40 Z" fill="#ffb114" fill-rule="nonzero" group-id="1,9" node-id="250" stroke="none" target-height="228" target-width="458" target-x="2173.1" target-y="1179.2"/><path d="M 2657.50 1319.10 L 2717.30 1122.50 C 2717.30 1122.50 2607.80 1153.00 2516.50 1229.30 C 2404.00 1323.40 2245.20 1171.70 2231.40 1146.20 C 2217.60 1133.50 2189.90 1156.00 2179.00 1179.20 C 2202.80 1221.70 2228.80 1262.70 2273.70 1290.40 C 2383.00 1360.10 2507.90 1358.50 2631.20 1345.40 C 2652.70 1331.00 2657.50 1319.10 2657.50 1319.10 Z" fill="#ffde70" fill-rule="nonzero" group-id="1,9" node-id="252" stroke="none" target-height="237.59998" target-width="538.30005" target-x="2179" target-y="1122.5"/><path d="M 2226.80 1151.50 C 2226.80 1151.50 2253.10 1170.50 2231.60 1196.00 C 2210.10 1221.50 2176.00 1208.10 2179.50 1192.00 C 2183.00 1175.80 2207.30 1145.20 2226.80 1150.30" fill="#1a1a1a" fill-rule="nonzero" group-id="1,9" node-id="254" stroke="#1a1a1a" stroke-linecap="round" stroke-width="2" target-height="76.30005" target-width="77.1001" target-x="2176" target-y="1145.2"/><path d="M 2478.90 2857.30 C 2524.60 2859.30 2571.50 2862.60 2612.80 2843.70 C 2617.10 2841.90 2620.80 2839.10 2624.10 2835.80 C 2634.90 2872.60 2646.00 2918.70 2638.80 2933.30 C 2626.10 2958.70 2353.70 3001.10 2320.80 2986.30 C 2295.10 2974.60 2416.70 2902.00 2478.90 2857.30 Z" fill="#1a1a1a" fill-rule="nonzero" group-id="1,9" node-id="256" stroke="none" target-height="165.30005" target-width="350.8999" target-x="2295.1" target-y="2835.8"/><path d="M 2612.90 2843.70 C 2571.60 2862.60 2524.70 2859.30 2479.00 2857.30 C 2496.30 2844.80 2509.10 2834.50 2512.80 2828.30 C 2529.80 2799.70 2608.20 2785.90 2608.20 2785.90 C 2608.20 2785.90 2616.20 2808.20 2624.30 2835.80 C 2620.90 2839.10 2617.10 2841.80 2612.90 2843.70 Z" fill="#ffffff" fill-rule="nonzero" group-id="1,9" node-id="258" stroke="none" target-height="76.700195" target-width="145.30005" target-x="2479" target-y="2785.9"/><path d="M 3120.20 2778.80 C 3126.60 2769.70 3130.90 2762.50 3132.00 2758.00 C 3139.40 2728.00 3202.90 2697.40 3202.90 2697.40 C 3202.90 2697.40 3211.70 2710.70 3222.70 2728.80 C 3196.00 2757.00 3158.70 2774.00 3120.20 2778.80 Z" fill="#ffffff" fill-rule="nonzero" group-id="1,9" node-id="260" stroke="none" target-height="81.40015" target-width="102.5" target-x="3120.2" target-y="2697.4"/><path d="M 3120.20 2778.80 C 3158.80 2774.00 3196.00 2757.00 3222.70 2728.80 C 3242.10 2760.80 3268.30 2807.90 3265.40 2824.50 C 3260.80 2850.60 3038.90 2952.00 3007.20 2946.10 C 2980.20 2941.10 3083.90 2830.30 3120.20 2778.80 Z" fill="#1a1a1a" fill-rule="nonzero" group-id="1,9" node-id="262" stroke="none" target-height="223.19995" target-width="288.1001" target-x="2980.2" target-y="2728.8"/><path d="M 2707.10 1937.00 C 2675.60 2004.80 2651.40 2077.50 2627.20 2147.70 C 2557.00 2363.20 2566.70 2583.60 2544.90 2806.40 C 2543.60 2816.40 2541.70 2826.50 2539.50 2836.50 C 2574.80 2830.20 2616.50 2812.70 2620.00 2765.20 C 2620.90 2664.90 2672.90 2269.70 2689.60 2179.00 C 2704.30 2098.80 2767.50 1939.10 2800.50 1858.90 C 2759.50 1866.90 2724.10 1901.10 2707.10 1937.00 Z" fill="#102140" fill-rule="nonzero" group-id="1,9" node-id="264" stroke="none" target-height="977.6" target-width="261" target-x="2539.5" target-y="1858.9"/><path d="M 2931.90 1584.60 L 2657.70 1596.80 C 2657.70 1596.80 2518.00 1812.70 2487.70 1992.80 C 2441.70 2266.60 2489.20 2839.70 2489.20 2839.70 C 2489.20 2839.70 2512.50 2841.50 2539.40 2836.70 C 2541.60 2826.70 2543.50 2816.60 2544.80 2806.60 C 2566.60 2583.80 2556.90 2363.40 2627.10 2147.90 C 2651.30 2077.70 2675.50 2005.00 2707.00 1937.20 C 2723.90 1901.20 2759.30 1867.10 2800.30 1859.10 C 2812.40 1829.60 2820.50 1810.80 2820.50 1810.80 L 2931.90 1584.60 Z" fill="#152a52" fill-rule="nonzero" group-id="1,9" node-id="266" stroke="none" target-height="1256.9" target-width="490.19995" target-x="2441.7" target-y="1584.6"/><path d="M 3007.40 2198.60 C 2992.90 2164.70 3007.40 2123.50 3002.60 2084.80 C 3002.60 2070.30 2990.50 2058.20 2988.10 2043.60 C 2985.70 1956.40 3000.20 1866.80 2997.80 1779.60 C 2995.80 1712.60 2961.80 1658.40 2929.60 1602.70 C 2896.50 1620.50 2847.20 1638.30 2782.60 1638.30 L 2772.80 1818.00 C 2772.80 1818.00 2750.60 2090.70 2840.30 2279.10 C 2917.30 2440.80 3080.70 2789.40 3132.00 2758.00 C 3162.80 2741.60 3183.00 2731.60 3195.30 2725.70 C 3192.40 2700.30 3187.30 2675.10 3179.40 2651.30 C 3123.70 2498.90 3063.10 2351.10 3007.40 2198.60 Z" fill="#152a52" fill-rule="nonzero" group-id="1,9" node-id="268" stroke="none" target-height="1186.7" target-width="444.69995" target-x="2750.6" target-y="1602.7"/><path d="M 3031.70 2076.50 C 3016.60 2023.40 3079.20 1709.30 2979.00 1567.70 C 2979.00 1567.70 2962.10 1585.10 2929.40 1602.70 C 2961.60 1658.40 2995.60 1712.60 2997.60 1779.60 C 3000.00 1866.80 2985.50 1956.40 2987.90 2043.60 C 2990.30 2058.10 3002.40 2070.20 3002.40 2084.80 C 3007.20 2123.50 2992.70 2164.70 3007.20 2198.60 C 3062.90 2351.20 3123.40 2498.90 3179.10 2651.50 C 3187.00 2675.20 3192.00 2700.40 3195.00 2725.90 C 3206.00 2720.70 3210.60 2718.80 3210.60 2718.80 C 3210.60 2718.80 3046.90 2129.60 3031.70 2076.50 Z" fill="#102140" fill-rule="nonzero" group-id="1,9" node-id="270" stroke="none" target-height="1158.2" target-width="281.2002" target-x="2929.4" target-y="1567.7"/><path d="M 2998.50 1603.00 C 2998.50 1603.00 2935.30 1703.30 2807.30 1688.40 C 2679.30 1673.50 2641.90 1634.20 2641.90 1634.20 L 2645.90 1613.10 L 2981.70 1572.70 C 2981.80 1572.70 2993.50 1585.90 2998.50 1603.00 Z" fill="#1a1a1a" fill-rule="nonzero" group-id="1,9" node-id="272" stroke="#1a1a1a" stroke-linecap="round" stroke-width="2" target-height="130.6001" target-width="356.6001" target-x="2641.9" target-y="1572.7"/><path d="M 2847.60 1539.90 C 2881.50 1479.40 2922.70 1423.70 2942.00 1355.90 C 2949.30 1331.70 2956.50 1309.90 2959.00 1285.70 C 2965.00 1247.90 2958.80 1212.10 2946.80 1178.10 C 2920.70 1150.70 2886.50 1130.90 2842.80 1122.50 C 2805.40 1115.30 2764.40 1104.40 2709.70 1125.40 C 2638.40 1153.70 2610.20 1205.90 2611.40 1274.50 C 2611.30 1303.50 2614.70 1334.80 2618.10 1367.30 C 2624.20 1427.00 2631.20 1490.00 2636.50 1536.40 C 2702.70 1562.10 2782.00 1559.90 2847.60 1539.90 Z" fill="#ffde70" fill-rule="nonzero" group-id="1,9" node-id="274" stroke="none" target-height="457.69995" target-width="354.80005" target-x="2610.2" target-y="1104.4"/><path d="M 3000.30 1423.00 C 3000.30 1423.00 3010.80 1302.90 2997.60 1264.70 C 2986.20 1231.60 2969.60 1201.90 2946.80 1178.00 C 2958.80 1212.00 2965.00 1247.90 2959.00 1285.60 C 2956.60 1309.80 2949.30 1331.60 2942.00 1355.80 C 2922.60 1423.60 2881.50 1479.30 2847.60 1539.80 C 2782.00 1559.80 2702.70 1562.10 2636.50 1536.10 C 2641.30 1578.10 2644.70 1606.50 2644.70 1606.50 C 2774.80 1696.10 3043.40 1731.30 3000.30 1423.00 Z" fill="#ffcf4a" fill-rule="nonzero" group-id="1,9" node-id="276" stroke="none" target-height="553.30005" target-width="406.8999" target-x="2636.5" target-y="1178"/><path d="M 2934.00 1380.70 C 2934.00 1380.70 2952.00 1489.30 3004.90 1500.80 C 3009.50 1477.50 3004.90 1436.10 3004.90 1436.10 C 3004.90 1436.10 2952.90 1379.70 2934.00 1380.70 Z" fill="#bf850f" fill-rule="nonzero" group-id="1,9" node-id="278" stroke="none" target-height="121.1001" target-width="75.5" target-x="2934" target-y="1379.7"/><path d="M 2840.40 1146.20 C 2840.40 1146.20 2831.30 1137.00 2856.00 1078.10 C 2893.10 1045.30 2939.30 908.00 2829.20 867.20 C 2719.10 826.40 2700.40 1013.50 2702.80 1053.00 C 2703.50 1076.20 2751.90 1076.20 2751.90 1076.20 C 2751.90 1076.20 2742.40 1123.80 2737.60 1137.60 C 2746.10 1170.60 2826.10 1158.80 2840.40 1146.20 Z" fill="#fc9590" fill-rule="nonzero" group-id="1,9" node-id="280" stroke="none" target-height="344.19995" target-width="238.90015" target-x="2700.4" target-y="826.4"/><path d="M 2844.70 976.40 C 2844.70 976.40 2835.00 984.10 2825.80 995.90 C 2819.30 1004.20 2863.30 976.20 2869.60 1012.60 C 2875.00 1043.70 2829.50 1047.50 2834.90 1057.10 C 2838.30 1063.30 2848.10 1072.40 2856.00 1078.20 C 2911.80 1119.20 2926.70 1051.40 2932.80 1011.60 C 2942.60 947.30 2943.50 862.50 2869.50 882.20 C 2867.60 808.50 2784.20 806.00 2692.10 829.40 C 2658.90 894.50 2693.50 924.90 2740.40 924.60 C 2787.30 924.30 2835.10 935.30 2844.70 976.40 Z" fill="#102140" fill-rule="nonzero" group-id="1,9" node-id="282" stroke="none" target-height="313.19995" target-width="284.6001" target-x="2658.9" target-y="806"/><path d="M 2782.80 1156.50 L 2800.30 1193.00 L 2784.70 1210.90 L 2768.10 1209.60 L 2750.80 1180.90 L 2772.00 1155.70 Z" fill="#1a1a1a" fill-rule="nonzero" group-id="1,9" node-id="284" stroke="none" target-height="55.200073" target-width="49.5" target-x="2750.8" target-y="1155.7"/><path d="M 2784.30 1207.20 L 2766.10 1204.50 L 2709.90 1421.20 C 2709.90 1421.20 2732.60 1555.80 2747.50 1555.80 C 2762.40 1555.80 2794.90 1424.20 2794.90 1424.20 L 2784.30 1207.20 Z" fill="#1a1a1a" fill-rule="nonzero" group-id="1,9" node-id="286" stroke="none" target-height="351.30005" target-width="85" target-x="2709.9" target-y="1204.5"/><path d="M 2735.70 1083.10 C 2747.70 1083.10 2752.70 1100.20 2757.80 1116.90 L 2768.10 1159.30 C 2768.10 1159.30 2732.00 1157.60 2726.90 1142.60 C 2721.80 1127.70 2727.20 1092.00 2727.20 1092.00 L 2735.70 1083.10 Z" fill="#ffffff" fill-rule="nonzero" group-id="1,9" node-id="288" stroke="none" target-height="76.20007" target-width="46.30005" target-x="2721.8" target-y="1083.1"/><path d="M 2858.10 1115.60 L 2848.70 1096.40 C 2848.70 1096.40 2816.20 1116.60 2808.00 1129.30 C 2799.80 1142.00 2787.80 1159.00 2787.80 1159.00 C 2787.80 1159.00 2791.30 1169.00 2801.50 1170.10 C 2811.70 1171.10 2855.20 1157.80 2858.10 1115.60 Z" fill="#ffffff" fill-rule="nonzero" group-id="1,9" node-id="290" stroke="none" target-height="74.69995" target-width="70.30005" target-x="2787.8" target-y="1096.4"/><path d="M 2751.80 1076.20 L 2794.60 1086.20 C 2794.60 1086.20 2763.50 1097.80 2750.10 1086.50 C 2752.70 1078.10 2751.80 1076.20 2751.80 1076.20 Z" fill="#db6767" fill-rule="nonzero" group-id="1,9" node-id="292" stroke="none" target-height="21.600098" target-width="44.5" target-x="2750.1" target-y="1076.2"/><path d="M 2096.90 1120.90 C 2089.90 1118.10 2082.90 1109.50 2079.10 1099.60 C 2070.60 1127.70 2102.60 1165.00 2143.80 1176.20 C 2169.80 1183.30 2190.40 1203.10 2190.40 1203.10 C 2190.40 1203.10 2201.40 1203.60 2212.60 1200.80 C 2188.50 1159.40 2149.40 1135.10 2096.90 1120.90 Z" fill="#e8766f" fill-rule="nonzero" group-id="1,9" node-id="294" stroke="none" target-height="104" target-width="142" target-x="2070.6" target-y="1099.6"/><path d="M 2225.10 1151.60 C 2192.80 1103.30 2215.40 1073.60 2186.40 1074.90 C 2164.20 1075.90 2172.80 1121.90 2172.80 1121.90 C 2172.80 1121.90 2117.70 1057.20 2088.40 1085.00 C 2083.80 1089.40 2080.80 1094.30 2079.20 1099.60 C 2082.90 1109.60 2089.90 1118.10 2097.00 1120.90 C 2149.60 1135.10 2188.60 1159.30 2212.80 1200.80 C 2229.60 1196.60 2246.70 1184.70 2225.10 1151.60 Z" fill="#fc9590" fill-rule="nonzero" group-id="1,9" node-id="296" stroke="none" target-height="143.6001" target-width="167.5" target-x="2079.2" target-y="1057.2"/><path d="M 3065.50 1915.20 C 3040.40 1885.90 3044.20 1847.50 3059.90 1815.70 C 3050.20 1808.60 3035.50 1803.00 3016.40 1811.00 C 3016.40 1811.00 3004.90 1902.00 3000.80 1923.20 C 2997.40 1941.30 3016.20 1971.60 3027.50 1984.60 C 3056.60 1967.60 3087.00 1940.60 3065.50 1915.20 Z" fill="#fc9590" fill-rule="nonzero" group-id="1,9" node-id="298" stroke="none" target-height="181.59998" target-width="89.6001" target-x="2997.4" target-y="1803"/><path d="M 3066.90 1870.70 C 3066.50 1852.50 3073.60 1830.30 3073.60 1830.30 C 3073.60 1830.30 3068.90 1822.30 3059.90 1815.80 C 3044.30 1847.60 3040.40 1886.00 3065.50 1915.30 C 3087.00 1940.70 3056.50 1967.60 3027.40 1984.70 C 3029.40 1987.00 3031.10 1988.70 3032.50 1989.80 C 3041.60 1996.90 3109.90 1950.60 3108.90 1924.30 C 3107.90 1898.00 3067.30 1888.90 3066.90 1870.70 Z" fill="#e8766f" fill-rule="nonzero" group-id="1,9" node-id="300" stroke="none" target-height="181.09998" target-width="82.5" target-x="3027.4" target-y="1815.8"/><path d="M 3034.10 1445.40 C 3022.00 1405.00 2977.80 1384.80 2934.00 1380.70 C 2965.30 1408.10 3004.20 1450.00 3024.60 1502.70 C 3055.50 1582.80 3008.30 1825.80 3008.30 1825.80 C 3008.30 1825.80 3014.50 1828.80 3023.50 1832.30 C 3076.10 1712.10 3074.50 1568.70 3034.10 1445.40 Z" fill="#ffb114" fill-rule="nonzero" group-id="1,9" node-id="302" stroke="none" target-height="451.6001" target-width="142.1001" target-x="2934" target-y="1380.7"/><path d="M 3161.00 1467.80 C 3136.70 1260.70 2895.70 1140.10 2895.70 1140.10 L 2886.50 1344.90 C 2886.50 1344.90 2907.50 1357.60 2934.00 1380.70 C 2977.80 1384.90 3022.00 1405.00 3034.10 1445.40 C 3074.50 1568.60 3076.10 1712.10 3023.50 1832.20 C 3039.20 1838.30 3063.20 1845.70 3077.60 1840.80 C 3100.30 1833.30 3181.40 1641.60 3161.00 1467.80 Z" fill="#ffde70" fill-rule="nonzero" group-id="1,9" node-id="304" stroke="none" target-height="705.6" target-width="294.8999" target-x="2886.5" target-y="1140.1"/><path d="M 2131.04 1215.30 L 1786.16 1042.15 L 1905.24 804.96 L 2250.12 978.11 Z" fill="#34D561" fill-rule="nonzero" group-id="1,10,17" node-id="311" stroke="none" target-height="410.34143" target-width="463.96387" target-x="1786.1597" target-y="804.96106"/><path d="M 1901.70 812.10 L 1984.70 1006.80 L 2058.50 1036.10 L 2247.00 984.40 L 2250.10 978.20 L 1905.20 805.10 Z" fill="#ccc4cc" fill-rule="nonzero" group-id="1,10" node-id="314" stroke="none" target-height="231" target-width="348.40015" target-x="1901.7" target-y="805.1"/><path d="M 2093.50 1112.60 L 2131.00 1215.40 L 1786.20 1042.30 L 1889.10 1010.00 L 2033.10 980.50 Z" fill="#ffffff" fill-rule="nonzero" group-id="1,10" node-id="316" stroke="none" target-height="234.90002" target-width="344.80005" target-x="1786.2" target-y="980.5"/><path d="M 2250.10 978.20 L 2006.80 1032.80 L 1905.20 805.10 Z" fill="#ffffff" fill-rule="nonzero" group-id="1,10" node-id="318" stroke="none" target-height="227.70007" target-width="344.90015" target-x="1905.2" target-y="805.1"/><path d="M 2005.71 2238.80 L 1333.65 2471.19 L 1173.81 2008.94 L 1845.87 1776.55 Z" fill="#03a051" fill-rule="nonzero" group-id="1,11,18" node-id="325" stroke="none" target-height="694.63586" target-width="831.89844" target-x="1173.8088" target-y="1776.5541"/><path d="M 1821.80 2156.20 L 2005.80 2238.80 L 1333.70 2471.20 L 1423.50 2293.90 L 1569.80 2065.90 Z" fill="#ffffff" fill-rule="nonzero" group-id="1,11" node-id="328" stroke="none" target-height="405.30005" target-width="672.1001" target-x="1333.7" target-y="2065.9"/><path d="M 1178.60 2022.70 L 1542.40 2163.60 L 1625.40 2193.90 L 1675.90 2103.90 L 1850.10 1788.60 L 1846.00 1776.60 L 1173.90 2009.00 Z" fill="#ccc4cc" fill-rule="nonzero" group-id="1,11" node-id="330" stroke="none" target-height="417.29993" target-width="676.19995" target-x="1173.9" target-y="1776.6"/><path d="M 1846.00 1776.60 L 1605.00 2167.90 L 1173.90 2009.00 Z" fill="#ffffff" fill-rule="nonzero" group-id="1,11" node-id="332" stroke="none" target-height="391.29993" target-width="672.1" target-x="1173.9" target-y="1776.6"/><path d="M 2188.30 1113.00 C 2187.30 1090.40 2166.10 1074.90 2161.50 1053.20 C 2153.50 1014.80 2208.30 1070.90 2213.90 1091.90 C 2219.60 1112.90 2209.40 1131.20 2222.20 1154.80" fill="#fc9590" fill-rule="nonzero" group-id="1" node-id="335" stroke="none" target-height="140.00006" target-width="68.69995" target-x="2153.5" target-y="1014.8"/><path d="M 1125.80 1196.00 C 1038.60 1176.60 949.00 1205.70 866.70 1179.00 C 834.50 1167.90 812.00 1141.80 799.50 1109.80 L 799.50 1372.00 L 1339.80 1372.00 L 1339.80 1290.80 C 1282.30 1234.50 1203.00 1214.20 1125.80 1196.00 Z" fill="#03A051" fill-rule="nonzero" group-id="1" node-id="337" stroke="none" target-height="262.19995" target-width="540.30005" target-x="799.5" target-y="1109.8"/><path d="M 1496.80 937.20 L 956.50 937.20 C 869.80 937.20 799.50 1007.50 799.50 1094.20 L 799.50 1109.90 C 812.00 1141.90 834.40 1168.00 866.70 1179.10 C 949.00 1205.70 1038.60 1176.70 1125.80 1196.10 C 1203.00 1214.30 1282.40 1234.60 1339.90 1291.00 L 1339.90 1094.30 C 1339.90 1007.40 1410.10 937.20 1496.80 937.20 Z" fill="#34D561" fill-rule="nonzero" group-id="1" node-id="339" stroke="none" target-height="353.8" target-width="697.30005" target-x="799.5" target-y="937.2"/><path d="M 1653.80 1091.70 L 1653.80 1369.90 L 1339.90 1369.90 L 1339.90 1091.70 C 1339.90 1006.30 1410.20 937.10 1496.90 937.10 C 1583.50 937.10 1653.80 1006.30 1653.80 1091.70 Z" fill="#ffffff" fill-rule="nonzero" group-id="1" node-id="341" stroke="none" target-height="432.80005" target-width="313.90002" target-x="1339.9" target-y="937.1"/><path d="M 1361.10 1348.60 L 1361.10 1091.60 C 1361.10 1018.10 1422.00 958.30 1496.80 958.30 C 1571.60 958.30 1632.50 1018.10 1632.50 1091.60 L 1632.50 1348.60 L 1361.10 1348.60 Z" fill="#d1334a" fill-rule="nonzero" group-id="1" node-id="343" stroke="none" target-height="390.3" target-width="271.40002" target-x="1361.1" target-y="958.3"/><path d="M 1419.20 1064.30 L 1589.80 1064.30 L 1589.80 1087.80 L 1419.20 1087.80 Z" fill="#1a1a1a" fill-rule="nonzero" group-id="1" node-id="345" stroke="none" target-height="23.5" target-width="170.6001" target-x="1419.2" target-y="1064.3"/><path d="M 1506.90 1002.60 L 1538.50 1002.60 L 1538.50 1023.80 C 1538.50 1023.80 1508.10 1024.00 1506.90 1023.80 C 1499.10 1022.60 1499.30 1002.60 1506.90 1002.60 Z" fill="#ffffff" fill-rule="nonzero" group-id="1" node-id="347" stroke="none" target-height="21.400024" target-width="39.400024" target-x="1499.1" target-y="1002.6"/><path d="M 1556.90 1011.10 C 1556.90 1020.27 1549.47 1027.70 1540.30 1027.70 C 1531.13 1027.70 1523.70 1020.27 1523.70 1011.10 C 1523.70 1001.93 1531.13 994.50 1540.30 994.50 C 1549.47 994.50 1556.90 1001.93 1556.90 1011.10 Z" fill="#ffb114" fill-rule="nonzero" group-id="1" node-id="349" stroke="none" target-height="33.19995" target-width="33.200073" target-x="1523.7" target-y="994.5"/><path d="M 940.30 2743.00 L 947.90 3007.30 L 1857.80 2970.20 Z" fill="#999399" fill-rule="nonzero" group-id="1,12" node-id="353" stroke="none" target-height="264.30005" target-width="917.50006" target-x="940.3" target-y="2743"/><path d="M 934.30 2726.10 L 1857.80 2970.20 L 622.80 2832.70 Z" fill="#ffffff" fill-rule="nonzero" group-id="1,12" node-id="355" stroke="none" target-height="244.09985" target-width="1235" target-x="622.8" target-y="2726.1"/><path d="M 1095.80 2694.80 L 1857.80 2970.20 L 1077.40 2763.90 Z" fill="#ccc4cc" fill-rule="nonzero" group-id="1,12" node-id="357" stroke="none" target-height="275.3999" target-width="780.4" target-x="1077.4" target-y="2694.8"/><path d="M 1213.70 2564.50 L 1095.80 2694.80 L 1857.80 2970.20 Z" fill="#ffffff" fill-rule="nonzero" group-id="1,12" node-id="359" stroke="none" target-height="405.69995" target-width="762" target-x="1095.8" target-y="2564.5"/><path d="M 2858.10 1743.10 C 2858.10 1743.10 2867.40 1771.00 2947.00 1776.10" fill="none" group-id="1" node-id="362" stroke="#1a1a1a" stroke-linecap="round" stroke-width="2" target-height="33" target-width="88.8999" target-x="2858.1" target-y="1743.1"/><path d="M 2953.70 1704.40 C 2953.70 1704.40 2919.60 1976.90 2969.60 2146.70 C 3019.60 2316.50 3171.40 2694.20 3171.40 2694.20" fill="none" group-id="1" node-id="364" stroke="#1a1a1a" stroke-linecap="round" stroke-width="2" target-height="989.7999" target-width="251.7998" target-x="2919.6" target-y="1704.4"/><path d="M 2770.50 1871.70 C 2770.50 1871.70 2622.20 2055.90 2599.90 2346.60 C 2577.60 2637.20 2582.20 2822.40 2582.20 2822.40" fill="none" group-id="1" node-id="366" stroke="#1a1a1a" stroke-linecap="round" stroke-width="2" target-height="950.69995" target-width="192.8999" target-x="2577.6" target-y="1871.7"/></g><path d="M 1173.90 2009.00 L 1190.70 2082.10 C 1190.70 2082.10 1303.50 2462.80 1333.70 2471.30 C 1246.70 2219.50 1173.90 2009.00 1173.90 2009.00 Z" fill="#ffffff" fill-rule="nonzero" node-id="369" stroke="none" target-height="462.30005" target-width="159.79993" target-x="1173.9" target-y="2009"/></svg>