<svg height="126" node-id="1" sillyvg="true" template-height="126" template-width="126" version="1.1" viewBox="0 0 126 126" width="126" xmlns="http://www.w3.org/2000/svg" xmlns:xlink="http://www.w3.org/1999/xlink"><defs node-id="179"></defs><g node-id="637"><g node-id="638"><path d="M 19.77 85.26 C 21.17 85.06 34.42 89.40 35.83 95.34 C 37.23 101.29 47.83 107.48 52.35 105.95 C 56.86 104.42 62.79 106.05 62.79 106.05 L 66.51 107.86 L 67.36 108.26 L 67.37 108.26 L 124.26 75.42 L 60.99 38.64 L 5.71 70.56 C 4.17 71.45 2.88 72.78 2.20 74.43 C -1.53 83.55 18.49 85.44 19.77 85.26 Z" fill="#F3FDF6" fill-rule="nonzero" group-id="1,2" node-id="189" stroke="none" target-height="69.62041" target-width="125.7836" target-x="-1.5252" target-y="38.6414"/><path d="M 12.24 66.79 L 48.25 87.44 L 56.86 82.47 L 20.85 61.82 L 21.37 61.52 L 57.38 82.17 L 84.26 66.65 L 48.25 46.00 L 48.76 45.70 L 84.77 66.35 L 93.39 61.38 L 57.37 40.73 L 57.89 40.43 L 121.40 77.06 L 120.89 77.36 L 93.79 61.62 L 85.18 66.59 L 112.28 82.34 L 111.76 82.63 L 84.66 66.89 L 75.97 71.91 L 103.07 87.65 L 102.70 87.86 L 75.60 72.12 L 66.84 77.18 L 93.93 92.93 L 93.57 93.14 L 66.47 77.39 L 57.79 82.40 L 84.88 98.15 L 84.37 98.45 L 57.27 82.70 L 48.65 87.68 L 75.75 103.43 L 75.23 103.72 L 11.72 67.09 Z" fill="#fdfeff" fill-rule="nonzero" group-id="1,2" node-id="191" stroke="none" target-height="63.2928" target-width="109.685005" target-x="11.7195" target-y="40.4308"/></g><g node-id="639"><g node-id="641"><g node-id="651"><g node-id="665"><g node-id="677"><g node-id="690"><g node-id="700"><g node-id="712"><g node-id="724"><path d="M 68.27 90.28 C 68.65 90.02 69.43 89.40 69.31 88.52 C 69.25 88.00 69.39 87.40 69.54 86.93 C 69.68 86.55 69.90 86.16 70.17 85.78 C 70.93 84.71 71.46 80.86 71.49 80.58 C 71.53 80.48 71.60 80.44 71.73 79.99 C 71.74 79.93 71.71 79.90 71.63 79.91 L 70.88 79.32 C 70.79 79.33 70.68 79.39 70.66 79.44 L 70.64 79.48 C 70.64 79.48 70.74 79.36 70.26 79.40 C 70.28 79.28 70.29 79.20 70.29 79.16 C 70.42 78.99 70.05 79.43 70.16 79.27 C 70.20 79.22 69.98 79.05 69.88 79.05 L 68.80 80.71 C 68.71 80.71 68.60 80.75 68.58 80.80 L 68.55 80.87 C 68.55 80.87 66.72 80.41 65.89 80.62 C 65.06 80.83 65.53 81.81 66.00 81.81 C 66.42 81.82 67.34 82.30 67.85 82.51 C 67.83 82.60 67.76 82.74 67.67 82.91 C 67.14 83.15 67.20 83.29 67.45 83.31 C 66.85 84.37 66.38 85.23 65.88 85.74 C 63.37 88.25 63.43 89.90 61.61 92.64 C 61.50 92.80 61.41 92.97 61.33 93.14 C 59.15 93.55 55.00 94.58 53.16 95.80 C 53.17 95.82 53.19 95.84 53.20 95.85 C 52.65 95.89 51.17 96.46 51.96 96.38 C 51.60 96.52 51.25 96.78 51.74 96.63 C 51.68 96.65 51.46 96.72 51.48 96.79 C 51.46 96.86 51.82 96.73 51.92 96.70 C 51.41 96.93 51.54 97.10 52.44 96.66 C 52.85 96.44 53.00 96.53 52.90 96.59 C 52.64 96.71 52.56 96.82 52.56 96.89 C 52.42 97.20 53.55 96.43 53.69 96.13 C 53.75 96.13 53.80 96.13 53.86 96.13 C 56.23 95.15 58.83 94.65 61.36 94.39 C 61.89 94.67 62.06 94.72 62.15 94.84 C 61.85 94.92 61.53 95.00 61.21 95.09 C 61.20 95.09 61.20 95.09 61.20 95.09 C 61.13 95.12 58.51 95.96 57.36 96.81 C 57.38 96.83 57.39 96.84 57.41 96.86 C 57.07 96.89 55.62 97.33 55.86 97.37 C 56.06 97.39 56.27 97.37 56.56 97.23 C 56.66 97.19 56.81 97.27 56.37 97.47 C 55.90 97.70 55.77 97.86 55.76 97.87 C 55.86 97.87 55.82 97.96 56.21 97.76 C 55.72 98.11 56.11 98.01 56.27 97.90 C 56.01 98.13 56.62 97.88 56.79 97.78 C 56.70 97.90 56.71 97.96 56.94 97.86 C 57.75 97.53 57.83 97.23 57.93 97.14 C 57.99 97.14 58.05 97.14 58.11 97.14 C 58.83 96.82 59.50 96.57 60.25 96.35 C 60.04 96.62 59.86 96.90 59.90 97.04 C 58.95 97.85 64.16 98.39 64.31 96.19 C 64.31 96.19 64.34 95.99 64.38 95.81 C 64.40 95.71 64.36 95.62 64.28 95.55 L 64.32 95.51 C 65.00 95.42 66.44 95.35 66.61 94.68 C 66.77 94.48 66.89 94.22 66.93 93.90 C 67.16 92.41 67.57 91.54 67.88 90.88 C 68.03 90.55 68.10 90.61 68.27 90.28 Z" fill="#DAF0D6" fill-rule="nonzero" group-id="1,3,5,15,29,41,54,64,76,88" node-id="212" stroke="none" target-height="19.3918" target-width="20.568302" target-x="51.1721" target-y="78.9943"/></g></g></g></g></g></g></g><g node-id="652"><g node-id="666"><g node-id="678"><g node-id="691"><g node-id="701"><path d="M 87.35 63.93 C 87.35 64.10 87.24 64.27 87.02 64.41 L 54.39 83.24 C 54.22 83.33 54.02 83.38 53.81 83.41 L 48.47 83.98 L 45.45 86.63 C 45.18 86.87 44.70 86.97 44.37 86.85 L 35.85 83.53 C 35.53 83.41 35.49 83.11 35.77 82.88 L 38.77 80.23 L 35.99 73.49 L 32.17 71.27 C 31.95 71.14 31.83 70.97 31.83 70.80 L 31.83 68.39 C 31.83 68.57 31.94 68.74 32.17 68.87 L 42.14 74.67 L 43.83 74.99 L 44.67 74.28 L 46.42 75.30 L 52.90 76.05 L 52.85 79.02 C 53.30 79.24 53.96 79.22 54.38 78.98 L 58.97 76.33 L 57.45 79.07 L 87.01 62.00 C 87.23 61.88 87.35 61.71 87.35 61.53 L 87.35 63.93 Z" fill="#DAF0D6" fill-rule="nonzero" group-id="1,3,5,16,30,42,55,65" node-id="231" stroke="none" target-height="25.435295" target-width="55.5288" target-x="31.8255" target-y="61.5334"/><g node-id="713"><path d="M 31.83 66.54 L 31.83 68.94 C 31.83 69.11 31.95 69.28 32.17 69.41 L 52.77 81.38 C 53.22 81.64 53.94 81.64 54.39 81.38 L 87.02 62.54 C 87.24 62.41 87.35 62.24 87.35 62.07 L 87.34 59.67 C 87.34 59.84 87.24 60.01 87.01 60.14 L 54.38 78.98 C 53.93 79.24 53.21 79.24 52.77 78.98 L 32.17 67.01 C 31.94 66.88 31.83 66.71 31.83 66.54 Z" fill="#9eb5df" fill-rule="nonzero" group-id="1,3,5,16,30,42,55,65,77" node-id="235" stroke="none" target-height="21.9656" target-width="55.527603" target-x="31.8256" target-y="59.6715"/></g><g node-id="714"><path d="M 31.83 68.51 C 31.83 68.68 31.95 68.85 32.17 68.98 L 52.77 80.95 C 53.22 81.21 53.94 81.21 54.39 80.95 L 87.02 62.11 C 87.24 61.98 87.35 61.81 87.35 61.65 L 87.35 62.07 C 87.35 62.24 87.24 62.41 87.02 62.54 L 54.39 81.38 C 53.94 81.64 53.22 81.64 52.77 81.38 L 32.17 69.41 C 31.95 69.28 31.83 69.11 31.83 68.94 L 31.83 66.54 C 31.83 66.54 31.83 66.54 31.83 66.55 L 31.83 68.51 Z" fill="#83a1cc" fill-rule="nonzero" group-id="1,3,5,16,30,42,55,65,78" node-id="240" stroke="none" target-height="19.988201" target-width="55.527702" target-x="31.8257" target-y="61.6488"/></g><path d="M 32.16 66.07 C 31.71 66.33 31.72 66.75 32.16 67.01 L 52.77 78.98 C 53.21 79.24 53.93 79.24 54.38 78.98 L 87.01 60.14 C 87.46 59.89 87.46 59.46 87.02 59.21 L 66.41 47.23 C 65.97 46.97 65.24 46.97 64.79 47.23 L 32.16 66.07 Z" fill="#dee7f8" fill-rule="nonzero" group-id="1,3,5,16,30,42,55,65,79" node-id="245" stroke="none" target-height="32.2671" target-width="55.7452" target-x="31.7134" target-y="46.9732"/></g></g><g node-id="692"><g node-id="702"><g node-id="716"><path d="M 41.39 70.53 C 40.91 70.81 40.91 71.27 41.39 71.55 L 44.95 73.62 C 45.43 73.90 46.22 73.90 46.71 73.62 C 47.20 73.34 47.20 72.88 46.72 72.60 L 43.16 70.53 C 42.67 70.25 41.88 70.25 41.39 70.53 Z" fill="#b6cbea" fill-rule="nonzero" group-id="1,3,5,16,30,42,56,66,80" node-id="256" stroke="none" target-height="3.6537018" target-width="6.2958984" target-x="40.9057" target-y="70.2479"/></g><path d="M 35.95 64.84 C 35.54 65.07 35.53 65.45 35.95 65.69 L 55.05 76.79 C 55.45 77.03 56.11 77.03 56.52 76.79 L 85.43 60.10 C 85.83 59.87 85.84 59.48 85.43 59.25 L 78.48 55.21 C 78.00 54.93 77.37 54.77 76.69 54.72 C 76.05 54.68 75.29 54.45 74.94 54.24 C 74.58 54.03 74.18 53.59 74.11 53.22 C 74.02 52.83 73.76 52.47 73.28 52.19 L 66.33 48.15 C 65.91 47.91 65.26 47.91 64.86 48.15 L 35.95 64.84 Z" fill="#03A051" fill-rule="nonzero" group-id="1,3,5,16,30,42,56,66,81" node-id="261" stroke="none" target-height="29.1185" target-width="50.304096" target-x="35.5321" target-y="47.9069"/></g></g></g><g node-id="679"><g node-id="693"><g node-id="703"><g node-id="718"><path d="M 53.51 43.91 C 53.05 44.18 52.68 44.82 52.68 45.35 L 52.72 62.28 C 52.72 62.82 53.10 63.03 53.56 62.76 L 63.31 57.14 C 63.77 56.87 64.14 56.22 64.14 55.69 L 64.10 38.76 C 64.10 38.23 63.72 38.02 63.26 38.28 L 53.51 43.91 Z" fill="#dee7f8" fill-rule="nonzero" group-id="1,3,5,16,30,43,57,67,82" node-id="275" stroke="none" target-height="25.012997" target-width="11.464798" target-x="52.6774" target-y="38.0175"/></g><g node-id="719"><g node-id="725"><path d="M 53.93 47.55 L 53.93 48.27 L 62.88 43.10 L 62.88 42.38 Z" fill="#91E396" fill-rule="nonzero" group-id="1,3,5,16,30,43,57,67,83,89" node-id="282" stroke="none" target-height="5.8957024" target-width="8.959" target-x="53.9252" target-y="42.3766"/></g><g node-id="726"><path d="M 53.92 45.76 L 53.92 46.49 L 62.88 41.31 L 62.88 40.59 Z" fill="#91E396" fill-rule="nonzero" group-id="1,3,5,16,30,43,57,67,83,90" node-id="287" stroke="none" target-height="5.8958015" target-width="8.959" target-x="53.9201" target-y="40.5902"/></g><g node-id="727"><path d="M 53.92 56.96 L 53.92 57.92 L 56.93 56.18 L 56.93 55.22 Z" fill="#91E396" fill-rule="nonzero" group-id="1,3,5,16,30,43,57,67,83,91" node-id="292" stroke="none" target-height="2.6991005" target-width="3.0121002" target-x="53.9201" target-y="55.2226"/></g><g node-id="728"><path d="M 53.93 49.33 L 53.93 50.06 L 62.89 44.89 L 62.89 44.16 Z" fill="#91E396" fill-rule="nonzero" group-id="1,3,5,16,30,43,57,67,83,92" node-id="297" stroke="none" target-height="5.8957977" target-width="8.958897" target-x="53.9303" target-y="44.1608"/></g><g node-id="729"><path d="M 53.94 52.91 L 53.94 53.63 L 59.41 50.47 L 59.41 49.75 Z" fill="#91E396" fill-rule="nonzero" group-id="1,3,5,16,30,43,57,67,83,93" node-id="302" stroke="none" target-height="3.8843002" target-width="5.4752007" target-x="53.9353" target-y="49.7479"/></g><path d="M 53.94 51.12 L 53.94 51.84 L 62.89 46.67 L 62.89 45.95 Z" fill="#91E396" fill-rule="nonzero" group-id="1,3,5,16,30,43,57,67,83,94" node-id="307" stroke="none" target-height="5.8957977" target-width="8.959" target-x="53.9353" target-y="45.9472"/></g></g><g node-id="704"><g node-id="720"><g node-id="731"><path d="M 58.77 46.40 L 49.19 58.78 L 58.80 58.25 L 68.38 47.71 Z" fill="#62CB7D" fill-opacity="0.5" fill-rule="nonzero" group-id="1,3,5,16,30,43,57,68,84,95" node-id="318" stroke="none" target-height="12.387703" target-width="19.1856" target-x="49.1921" target-y="46.3952"/></g><g node-id="732"><path d="M 49.23 70.35 L 44.67 74.28 L 52.77 78.98 C 53.21 79.24 53.93 79.24 54.38 78.98 L 58.97 76.33 L 68.41 59.27 L 49.23 70.35 Z" fill="#DAF0D6" fill-opacity="0.3" fill-rule="nonzero" group-id="1,3,5,16,30,43,57,68,84,96" node-id="323" stroke="none" target-height="19.9692" target-width="23.7435" target-x="44.6699" target-y="59.2713"/></g><path d="M 58.80 58.25 L 68.38 47.71 L 68.38 47.71 L 68.41 59.27 L 49.23 70.35 L 49.19 58.78 L 49.19 58.78 Z" fill="#dee7f8" fill-rule="nonzero" group-id="1,3,5,16,30,43,57,68,84,97" node-id="328" stroke="none" target-height="22.642097" target-width="19.221298" target-x="49.1921" target-y="47.706"/></g></g><path d="M 60.52 56.29 C 59.52 55.91 58.39 56.28 57.80 57.18 L 49.23 70.35 L 68.42 59.27 L 60.52 56.29 Z" fill="#b6cbea" fill-rule="nonzero" group-id="1,3,5,16,30,43,57" node-id="333" stroke="none" target-height="14.437298" target-width="19.189003" target-x="49.2278" target-y="55.9109"/></g></g></g><g node-id="667"><g node-id="680"><g node-id="694"><path d="M 63.31 52.97 C 63.34 52.96 63.38 52.95 63.43 52.95 C 63.55 52.94 63.74 52.99 63.94 53.21 C 63.97 53.24 64.01 53.24 64.04 53.22 C 64.09 53.16 64.12 53.04 63.87 52.78 C 63.50 52.37 63.45 52.08 63.45 52.06 C 63.45 52.06 63.46 52.03 63.52 52.03 C 63.58 52.02 63.69 52.07 63.86 52.28 C 63.85 52.26 63.59 51.86 63.74 51.85 C 63.77 51.85 63.81 51.86 63.88 51.90 C 63.88 51.90 63.92 51.92 63.99 52.08 C 63.96 51.99 63.91 51.85 63.97 51.84 C 64.00 51.85 64.04 51.86 64.10 51.92 C 64.34 52.11 64.41 52.20 64.43 52.24 C 64.42 52.17 64.40 52.00 64.48 51.99 C 64.51 52.00 64.55 52.02 64.62 52.08 C 64.87 52.30 65.26 52.85 65.26 53.33 C 65.26 53.47 65.40 53.52 65.50 53.61 L 65.58 53.68 L 65.00 54.05 C 64.99 54.04 64.88 53.94 64.78 53.91 C 64.67 53.87 64.44 53.92 63.92 53.55 C 63.56 53.30 63.37 53.14 63.29 53.06 C 63.26 53.03 63.27 52.98 63.31 52.97 Z" fill="#ecb4bf" fill-rule="nonzero" group-id="1,3,5,16,31,44,58" node-id="344" stroke="none" target-height="2.2108994" target-width="2.3227043" target-x="63.2618" target-y="51.8431"/><g node-id="705"><path d="M 71.14 58.84 C 70.11 58.44 68.93 57.83 67.59 57.06 C 67.58 57.06 67.58 57.06 67.58 57.06 C 67.53 57.01 65.29 55.51 64.54 53.98 C 65.02 53.38 65.20 53.38 65.45 53.39 C 66.44 54.39 67.39 54.97 68.87 55.66 C 69.23 55.83 70.53 56.26 71.82 56.53 C 72.41 56.66 72.87 57.20 72.80 57.80 C 72.71 58.58 71.87 59.13 71.14 58.84 Z" fill="#ffffff" fill-rule="nonzero" group-id="1,3,5,16,31,44,58,69" node-id="348" stroke="none" target-height="5.751602" target-width="8.332596" target-x="64.5417" target-y="53.3755"/></g><g node-id="706"><g node-id="721"><path d="M 68.38 79.02 C 69.02 79.63 70.60 79.70 70.60 79.70 L 70.60 79.77 C 70.60 79.87 70.68 79.98 70.76 80.00 L 71.62 80.09 C 71.71 80.11 71.75 80.05 71.76 79.95 C 71.80 79.52 71.83 78.99 71.79 78.84 C 71.74 78.66 71.36 79.29 70.53 78.41 C 69.86 78.61 68.98 78.39 68.60 78.26 C 68.18 78.13 67.74 78.41 68.38 79.02 Z" fill="#2a2a5e" fill-rule="nonzero" group-id="1,3,5,16,31,44,58,70,85" node-id="355" stroke="none" target-height="1.9848022" target-width="4.0938034" target-x="67.7402" target-y="78.1267"/></g><g node-id="722"><g node-id="734"><g node-id="736"><g node-id="738"><g node-id="739"><g node-id="740"><path d="M 69.92 72.65 C 70.06 73.11 70.16 73.59 70.19 74.07 C 70.29 75.35 70.46 77.91 70.42 78.56 C 70.41 78.58 70.42 78.59 70.43 78.60 C 70.69 79.03 71.18 79.08 71.78 78.96 C 71.78 78.96 72.46 75.93 72.18 73.81 C 72.09 73.12 72.04 72.43 72.09 71.74 C 72.15 70.89 72.29 69.81 72.61 68.88 C 73.20 67.12 72.52 65.93 72.31 65.57 C 72.30 65.54 72.27 65.53 72.24 65.54 L 69.24 66.50 C 69.21 66.51 69.19 66.52 69.19 66.55 C 69.17 66.89 69.01 69.46 69.92 72.65 Z" fill="#3a3a77" fill-rule="nonzero" group-id="1,3,5,16,31,44,58,70,86,98,100,102,103,104" node-id="370" stroke="none" target-height="13.551498" target-width="4.188202" target-x="69.0129" target-y="65.5316"/></g><path d="M 65.92 81.32 C 66.66 81.70 68.53 81.21 68.53 81.21 L 68.53 81.33 C 68.53 81.43 68.62 81.51 68.71 81.50 L 69.70 81.43 C 69.80 81.42 69.87 81.34 69.85 81.24 C 69.81 80.87 69.71 80.01 69.66 79.88 C 69.60 79.72 69.32 80.21 68.39 79.67 C 68.38 79.66 68.35 79.66 68.33 79.67 C 67.72 80.06 66.60 80.47 66.18 80.49 C 65.70 80.50 65.19 80.94 65.92 81.32 Z" fill="#2a2a5e" fill-rule="nonzero" group-id="1,3,5,16,31,44,58,70,86,98,100,102,103" node-id="373" stroke="none" target-height="2.0386047" target-width="4.6709976" target-x="65.1942" target-y="79.6607"/><path d="M 67.87 73.87 C 68.00 74.31 68.07 74.76 68.10 75.22 C 68.20 76.51 68.37 79.03 68.33 79.68 C 68.33 79.69 68.33 79.71 68.34 79.72 C 68.60 80.14 69.09 80.20 69.69 80.08 C 69.69 80.08 70.36 77.08 70.10 74.96 C 70.00 74.22 69.96 73.47 70.03 72.73 C 70.11 71.84 70.28 70.72 70.66 69.83 C 71.36 68.19 70.94 66.52 70.76 66.11 C 70.74 66.08 70.71 66.07 70.67 66.09 L 67.14 67.61 C 67.12 67.62 67.11 67.63 67.10 67.66 C 67.08 67.99 66.91 70.62 67.87 73.87 Z" fill="#4c4a8b" fill-rule="nonzero" group-id="1,3,5,16,31,44,58,70,86,98,100,102,103,105" node-id="377" stroke="none" target-height="14.124702" target-width="4.444504" target-x="66.9126" target-y="66.0729"/><path d="M 71.26 57.28 C 70.79 56.74 70.79 56.04 70.80 55.96 C 70.80 55.95 70.80 55.95 70.79 55.94 L 70.26 54.52 C 70.25 54.50 70.24 54.49 70.23 54.48 C 69.99 54.36 67.72 53.18 67.31 53.42 C 66.84 53.68 67.46 55.85 67.46 55.85 C 67.51 56.35 67.73 56.53 67.73 56.53 L 68.78 57.01 C 68.80 57.02 68.81 57.03 68.82 57.04 L 69.11 57.84 C 69.11 57.84 71.75 57.85 71.26 57.28 Z" fill="#ecb4bf" fill-rule="nonzero" group-id="1,3,5,16,31,44,58,70,86,98,100,102,103,106" node-id="382" stroke="none" target-height="4.6694984" target-width="4.907402" target-x="66.8431" target-y="53.1823"/></g></g><path d="M 66.90 59.39 C 66.96 59.07 67.04 58.78 67.16 58.60 C 67.24 58.49 67.33 58.39 67.44 58.31 L 68.19 57.75 C 68.43 57.57 68.60 57.30 68.65 57.01 C 68.66 56.98 68.68 56.96 68.71 56.96 C 68.99 56.97 70.46 57.01 70.80 56.06 L 70.96 56.46 C 71.43 56.40 73.26 56.36 72.75 59.21 C 72.28 61.88 72.29 63.44 72.28 64.64 C 72.28 65.24 72.37 65.12 72.39 65.71 C 72.47 67.87 67.10 67.66 67.10 67.66 C 67.02 66.72 67.00 63.00 66.84 61.48 C 66.77 60.78 66.77 60.08 66.90 59.39 Z" fill="#ffffff" fill-rule="nonzero" group-id="1,3,5,16,31,44,58,70,86,98,100" node-id="387" stroke="none" target-height="11.804203" target-width="6.4976044" target-x="66.7652" target-y="56.0639"/></g></g></g></g><path d="M 59.81 53.72 C 59.80 53.75 59.79 53.79 59.78 53.83 C 59.76 53.96 59.78 54.15 59.98 54.38 C 60.00 54.41 60.00 54.45 59.97 54.47 C 59.91 54.52 59.78 54.53 59.56 54.26 C 59.20 53.84 58.91 53.75 58.90 53.75 C 58.90 53.75 58.86 53.76 58.85 53.81 C 58.84 53.87 58.87 53.99 59.06 54.19 C 59.05 54.17 58.67 53.86 58.65 54.01 C 58.64 54.04 58.65 54.08 58.68 54.16 C 58.68 54.16 58.70 54.20 58.84 54.29 C 58.76 54.24 58.63 54.18 58.62 54.24 C 58.62 54.27 58.62 54.31 58.67 54.38 C 58.83 54.64 58.92 54.72 58.95 54.74 C 58.89 54.73 58.72 54.69 58.70 54.76 C 58.70 54.79 58.72 54.84 58.77 54.92 C 58.96 55.18 59.46 55.64 59.94 55.70 C 60.07 55.72 60.10 55.86 60.18 55.97 L 60.25 56.06 L 60.69 55.53 C 60.68 55.52 60.59 55.40 60.57 55.29 C 60.55 55.18 60.62 54.95 60.31 54.39 C 60.11 54.01 59.97 53.80 59.90 53.71 C 59.88 53.68 59.83 53.69 59.81 53.72 Z" fill="#ecb4bf" fill-rule="nonzero" group-id="1,3,5,16,31,44,58" node-id="393" stroke="none" target-height="2.384201" target-width="2.0716972" target-x="58.615" target-y="53.6797"/><path d="M 66.85 60.61 C 65.79 60.21 64.56 59.60 63.16 58.84 C 63.16 58.84 63.16 58.84 63.15 58.84 C 63.11 58.79 60.74 57.31 59.87 55.79 C 60.30 55.19 60.48 55.19 60.72 55.20 C 61.80 56.20 62.80 56.77 64.33 57.45 C 64.71 57.62 66.11 58.07 67.46 58.34 C 67.96 58.44 68.35 58.85 68.42 59.34 C 68.55 60.24 67.68 60.92 66.85 60.61 Z" fill="#ffffff" fill-rule="nonzero" group-id="1,3,5,16,31,44,58,71" node-id="397" stroke="none" target-height="5.7266006" target-width="8.685696" target-x="59.867" target-y="55.1894"/></g><path d="M 70.85 52.91 C 69.99 51.98 67.18 52.29 67.14 53.20 C 67.11 53.72 67.53 54.01 67.82 54.23 C 67.92 54.30 67.98 54.41 67.98 54.53 C 67.99 54.84 67.96 55.11 67.96 55.11 L 68.15 55.32 C 68.21 54.97 68.26 54.79 68.32 54.67 C 68.34 54.63 68.40 54.62 68.44 54.65 C 68.61 54.79 68.72 54.99 68.75 55.20 C 68.78 55.46 68.80 55.89 68.66 56.28 C 68.57 56.52 68.74 56.76 69.01 56.77 C 69.55 56.81 70.01 56.72 70.58 56.46 C 70.87 56.33 71.06 56.06 71.10 55.77 C 71.15 55.45 71.20 55.10 71.20 55.10 C 71.60 53.33 70.85 52.91 70.85 52.91 Z" fill="#a0533f" fill-rule="nonzero" group-id="1,3,5,16,31,44,59,72,87,99,101" node-id="411" stroke="none" target-height="4.8254013" target-width="4.4842987" target-x="67.1122" target-y="51.9846"/></g></g></g></g><g node-id="642"><g node-id="653"><g node-id="668"><path d="M 80.59 33.88 L 80.39 33.77 L 80.41 38.04 L 73.03 42.30 L 72.83 43.15 L 72.41 42.91 L 72.40 36.84 L 80.61 32.09 L 81.03 32.33 Z" fill="#03A051" fill-rule="nonzero" group-id="1,3,6,17,32" node-id="428" stroke="none" target-height="11.061302" target-width="8.631699" target-x="72.3967" target-y="32.0935"/><path d="M 81.03 32.34 L 81.04 38.41 L 72.82 43.16 L 72.81 37.08 Z" fill="#91E396" fill-rule="nonzero" group-id="1,3,6,17,32" node-id="430" stroke="none" target-height="10.8218" target-width="8.233299" target-x="72.8095" target-y="32.3353"/><g node-id="681"><path d="M 76.93 37.26 L 72.82 43.16 L 81.04 38.41 Z" fill="#62CB7D" fill-rule="nonzero" group-id="1,3,6,17,32,45" node-id="434" stroke="none" target-height="5.9019012" target-width="8.219498" target-x="72.8248" target-y="37.2551"/></g></g><path d="M 81.03 32.34 L 76.93 38.38 L 72.81 37.08 Z" fill="#62CB7D" fill-rule="nonzero" group-id="1,3,6,17" node-id="438" stroke="none" target-height="6.0494003" target-width="8.2181015" target-x="72.8095" target-y="32.3353"/></g></g><g node-id="643"><g node-id="654"><g node-id="669"><g node-id="682"><g node-id="696"><g node-id="709"><path d="M 70.07 29.23 L 73.31 29.87 L 80.72 22.60 Z" fill="#62CB7D" fill-rule="nonzero" group-id="1,3,7,18,33,46,60,73" node-id="454" stroke="none" target-height="7.2622986" target-width="10.643898" target-x="70.0725" target-y="22.6039"/><path d="M 74.73 32.86 L 73.31 29.87 L 80.72 22.60 Z" fill="#62CB7D" fill-rule="nonzero" group-id="1,3,7,18,33,46,60,73" node-id="456" stroke="none" target-height="10.252501" target-width="7.4064026" target-x="73.31" target-y="22.6038"/><path d="M 74.65 30.18 L 74.73 32.86 L 80.72 22.60 Z" fill="#03A051" fill-rule="nonzero" group-id="1,3,7,18,33,46,60,73" node-id="458" stroke="none" target-height="10.252501" target-width="6.0649033" target-x="74.6515" target-y="22.6038"/><path d="M 77.90 30.76 L 74.65 30.18 L 80.72 22.60 Z" fill="#62CB7D" fill-rule="nonzero" group-id="1,3,7,18,33,46,60,73" node-id="460" stroke="none" target-height="8.1609" target-width="6.0649033" target-x="74.6515" target-y="22.6038"/></g></g></g></g></g></g><g node-id="644"><g node-id="655"><g node-id="670"><path d="M 57.33 29.02 L 57.13 28.90 L 57.14 33.18 L 49.76 37.44 L 49.57 38.29 L 49.15 38.05 L 49.14 31.97 L 57.35 27.23 L 57.77 27.47 Z" fill="#03A051" fill-rule="nonzero" group-id="1,3,8,19,34" node-id="474" stroke="none" target-height="11.061401" target-width="8.631699" target-x="49.1355" target-y="27.2277"/><path d="M 57.77 27.47 L 57.78 33.55 L 49.56 38.29 L 49.55 32.21 Z" fill="#91E396" fill-rule="nonzero" group-id="1,3,8,19,34" node-id="476" stroke="none" target-height="10.821701" target-width="8.233398" target-x="49.5483" target-y="27.4696"/><g node-id="683"><path d="M 53.67 32.39 L 49.56 38.29 L 57.78 33.55 Z" fill="#62CB7D" fill-rule="nonzero" group-id="1,3,8,19,34,47" node-id="480" stroke="none" target-height="5.9018974" target-width="8.2195015" target-x="49.5636" target-y="32.3893"/></g></g><path d="M 57.77 27.47 L 53.67 33.52 L 49.55 32.21 Z" fill="#62CB7D" fill-rule="nonzero" group-id="1,3,8,19" node-id="484" stroke="none" target-height="6.049301" target-width="8.218098" target-x="49.5483" target-y="27.4696"/></g></g><g node-id="645"><g node-id="656"><g node-id="671"><g node-id="684"><g node-id="697"><g node-id="710"><path d="M 46.81 24.37 L 50.05 25.00 L 57.46 17.74 Z" fill="#62CB7D" fill-rule="nonzero" group-id="1,3,9,20,35,48,61,74" node-id="500" stroke="none" target-height="7.2623997" target-width="10.643902" target-x="46.8113" target-y="17.7381"/><path d="M 51.46 27.99 L 50.05 25.00 L 57.46 17.74 Z" fill="#62CB7D" fill-rule="nonzero" group-id="1,3,9,20,35,48,61,74" node-id="502" stroke="none" target-height="10.252499" target-width="7.406399" target-x="50.0488" target-y="17.738"/><path d="M 51.39 25.32 L 51.46 27.99 L 57.46 17.74 Z" fill="#03A051" fill-rule="nonzero" group-id="1,3,9,20,35,48,61,74" node-id="504" stroke="none" target-height="10.252499" target-width="6.0648994" target-x="51.3903" target-y="17.738"/><path d="M 54.64 25.90 L 51.39 25.32 L 57.46 17.74 Z" fill="#62CB7D" fill-rule="nonzero" group-id="1,3,9,20,35,48,61,74" node-id="506" stroke="none" target-height="8.160898" target-width="6.0648994" target-x="51.3903" target-y="17.738"/></g></g></g></g></g></g><g node-id="646"><g node-id="657"><g node-id="672"><path d="M 38.55 50.80 L 38.36 50.68 L 38.37 54.96 L 30.99 59.22 L 30.79 60.07 L 30.37 59.83 L 30.36 53.75 L 38.57 49.01 L 38.99 49.25 Z" fill="#03A051" fill-rule="nonzero" group-id="1,3,10,21,36" node-id="520" stroke="none" target-height="11.061398" target-width="8.6317005" target-x="30.3585" target-y="49.0082"/><path d="M 38.99 49.25 L 39.00 55.33 L 30.79 60.07 L 30.77 53.99 Z" fill="#91E396" fill-rule="nonzero" group-id="1,3,10,21,36" node-id="522" stroke="none" target-height="10.821701" target-width="8.233299" target-x="30.7714" target-y="49.2501"/><g node-id="685"><path d="M 34.89 54.17 L 30.79 60.07 L 39.01 55.33 Z" fill="#62CB7D" fill-rule="nonzero" group-id="1,3,10,21,36,49" node-id="526" stroke="none" target-height="5.9019012" target-width="8.2194" target-x="30.7867" target-y="54.1698"/></g></g><path d="M 38.99 49.25 L 34.89 55.30 L 30.77 53.99 Z" fill="#62CB7D" fill-rule="nonzero" group-id="1,3,10,21" node-id="530" stroke="none" target-height="6.049301" target-width="8.2179985" target-x="30.7714" target-y="49.2501"/></g></g><g node-id="647"><g node-id="658"><g node-id="673"><g node-id="686"><g node-id="698"><g node-id="711"><path d="M 28.03 46.15 L 31.27 46.78 L 38.68 39.52 Z" fill="#62CB7D" fill-rule="nonzero" group-id="1,3,11,22,37,50,62,75" node-id="546" stroke="none" target-height="7.2622986" target-width="10.643999" target-x="28.0343" target-y="39.5187"/><path d="M 32.69 49.77 L 31.27 46.78 L 38.68 39.52 Z" fill="#62CB7D" fill-rule="nonzero" group-id="1,3,11,22,37,50,62,75" node-id="548" stroke="none" target-height="10.252499" target-width="7.406399" target-x="31.2719" target-y="39.5185"/><path d="M 32.61 47.10 L 32.69 49.77 L 38.68 39.52 Z" fill="#03A051" fill-rule="nonzero" group-id="1,3,11,22,37,50,62,75" node-id="550" stroke="none" target-height="10.252499" target-width="6.0649986" target-x="32.6133" target-y="39.5185"/><path d="M 35.86 47.68 L 32.61 47.10 L 38.68 39.52 Z" fill="#62CB7D" fill-rule="nonzero" group-id="1,3,11,22,37,50,62,75" node-id="552" stroke="none" target-height="8.160999" target-width="6.0649986" target-x="32.6133" target-y="39.5185"/></g></g></g></g></g></g></g><path d="M 103.21 75.52 L 102.88 74.86 L 102.88 74.85 C 102.87 74.83 102.86 74.80 102.85 74.78 C 102.75 74.57 102.57 74.37 102.34 74.23 L 90.49 67.18 C 90.02 66.91 89.52 66.97 89.36 67.34 L 84.30 79.21 C 84.22 79.40 84.25 79.62 84.35 79.83 L 84.70 80.56 C 84.80 80.77 84.98 80.97 85.22 81.11 L 87.12 82.25 C 87.31 82.53 87.57 82.79 87.90 82.98 L 88.39 83.28 L 88.40 84.01 C 88.41 84.18 88.47 84.36 88.56 84.52 C 88.55 84.50 88.53 84.48 88.52 84.46 L 88.67 84.79 C 88.80 85.06 89.03 85.32 89.32 85.49 L 90.77 86.35 C 91.22 86.62 91.71 86.63 92.00 86.39 L 92.69 85.83 L 93.32 86.21 C 93.64 86.40 93.98 86.50 94.28 86.51 L 97.06 88.16 C 97.53 88.44 98.03 88.36 98.19 88.00 L 103.25 76.13 C 103.33 75.94 103.30 75.73 103.21 75.52 Z M 90.74 85.04 C 90.64 85.27 90.34 85.31 90.06 85.14 C 89.98 85.09 89.91 85.03 89.85 84.96 C 89.84 84.89 89.85 84.83 89.87 84.76 C 89.97 84.54 90.28 84.50 90.56 84.66 C 90.64 84.72 90.71 84.78 90.77 84.84 C 90.77 84.91 90.77 84.98 90.74 85.04 Z" fill="#DAF0D6" fill-rule="nonzero" group-id="1" node-id="561" stroke="none" target-height="21.530006" target-width="19.106499" target-x="84.2216" target-y="66.9062"/><path d="M 103.50 58.04 L 103.45 75.38 C 103.45 75.65 103.35 75.84 103.20 75.92 L 102.67 76.23 C 102.82 76.14 102.92 75.96 102.92 75.69 L 102.97 58.34 C 102.97 57.81 102.59 57.16 102.13 56.89 L 90.31 50.07 C 90.07 49.93 89.86 49.92 89.70 50.01 L 90.23 49.70 C 90.39 49.61 90.60 49.63 90.84 49.76 L 102.66 56.59 C 103.12 56.86 103.50 57.51 103.50 58.04 Z" fill="#83a1cc" fill-rule="nonzero" group-id="1,4,12,23,38,51" node-id="573" stroke="none" target-height="26.615704" target-width="13.791" target-x="89.7047" target-y="49.6145"/><path d="M 102.13 56.89 C 102.59 57.16 102.97 57.81 102.97 58.35 L 102.92 75.69 C 102.91 76.22 102.54 76.44 102.07 76.17 L 90.25 69.35 C 89.79 69.08 89.41 68.43 89.41 67.90 L 89.46 50.55 C 89.46 50.02 89.84 49.80 90.31 50.07 L 102.13 56.89 Z" fill="#b6cbea" fill-rule="nonzero" group-id="1,4,12,23,38,52" node-id="578" stroke="none" target-height="26.640598" target-width="13.557503" target-x="89.4094" target-y="49.7999"/><path d="M 101.46 57.10 L 101.41 74.27 L 90.92 68.21 L 90.97 51.04 Z" fill="#ffffff" fill-rule="nonzero" group-id="1,4,12,24" node-id="585" stroke="none" target-height="23.2219" target-width="10.534103" target-x="90.9211" target-y="51.044"/><path d="M 92.53 50.94 L 92.29 51.08 C 92.56 50.92 92.95 50.94 93.37 51.18 L 94.01 51.55 L 94.25 51.41 L 93.61 51.05 C 93.19 50.80 92.80 50.78 92.53 50.94 Z" fill="#6262aa" fill-rule="nonzero" group-id="1,4,12,25,39,53,63" node-id="596" stroke="none" target-height="0.7737999" target-width="1.9598007" target-x="92.2882" target-y="50.7789"/><path d="M 96.30 52.48 C 96.01 52.32 95.78 51.92 95.78 51.59 C 95.78 51.43 95.84 51.32 95.93 51.26 L 95.69 51.40 C 95.60 51.46 95.55 51.57 95.55 51.73 C 95.54 52.06 95.77 52.46 96.06 52.62 C 96.20 52.70 96.33 52.71 96.42 52.66 L 96.66 52.52 C 96.57 52.57 96.44 52.56 96.30 52.48 Z" fill="#6262aa" fill-rule="nonzero" group-id="1,4,12,25,39,53,63" node-id="598" stroke="none" target-height="1.4458008" target-width="1.1172943" target-x="95.5444" target-y="51.2637"/><path d="M 99.02 54.17 L 98.38 53.80 L 98.03 52.47 C 97.88 51.90 97.49 51.35 97.04 51.09 L 95.60 50.26 C 95.31 50.09 95.04 50.07 94.84 50.18 L 94.60 50.32 C 94.80 50.21 95.07 50.23 95.36 50.39 L 96.80 51.23 C 97.25 51.49 97.65 52.04 97.80 52.61 L 98.14 53.94 L 98.78 54.31 C 99.62 54.79 100.30 55.97 100.29 56.93 L 100.53 56.79 C 100.54 55.83 99.86 54.65 99.02 54.17 Z" fill="#6262aa" fill-rule="nonzero" group-id="1,4,12,25,39,53,63" node-id="600" stroke="none" target-height="6.864403" target-width="5.9303055" target-x="94.6048" target-y="50.0683"/><path d="M 98.78 54.31 C 99.62 54.79 100.30 55.97 100.29 56.93 L 91.84 52.05 C 91.85 51.09 92.53 50.70 93.37 51.18 L 94.01 51.55 L 94.36 50.63 C 94.51 50.23 94.91 50.14 95.36 50.39 L 96.80 51.23 C 97.25 51.49 97.65 52.04 97.80 52.61 L 98.14 53.94 L 98.78 54.31 Z M 96.06 52.62 C 96.34 52.78 96.57 52.65 96.57 52.33 C 96.57 52.00 96.35 51.60 96.06 51.44 C 95.78 51.28 95.55 51.40 95.55 51.73 C 95.54 52.06 95.77 52.46 96.06 52.62" fill="#2a2a5e" fill-rule="nonzero" group-id="1,4,12,25,40" node-id="607" stroke="none" target-height="6.796501" target-width="8.452499" target-x="91.8439" target-y="50.1362"/><path d="M 92.11 61.42 L 92.09 67.28 L 100.01 71.85 L 100.03 65.99 Z" fill="#91E396" fill-rule="nonzero" group-id="1,4" node-id="612" stroke="none" target-height="10.4314995" target-width="7.936302" target-x="92.0915" target-y="61.4193"/><path d="M 96.06 66.16 L 100.01 71.85 L 92.09 67.28 Z" fill="#62CB7D" fill-rule="nonzero" group-id="1,4,13" node-id="616" stroke="none" target-height="5.689102" target-width="7.9229965" target-x="92.0901" target-y="66.1616"/><path d="M 92.11 61.42 L 96.06 67.25 L 100.03 65.99 Z" fill="#62CB7D" fill-rule="nonzero" group-id="1,4" node-id="619" stroke="none" target-height="5.8312035" target-width="7.9216003" target-x="92.1062" target-y="61.4193"/><path d="M 97.04 60.73 L 97.04 61.45 L 91.97 58.52 L 91.97 57.80 Z" fill="#b6cbea" fill-rule="nonzero" group-id="1,4,14,26" node-id="625" stroke="none" target-height="3.6542015" target-width="5.0783997" target-x="91.9661" target-y="57.7964"/><path d="M 100.41 59.15 L 100.41 59.87 L 91.98 55.01 L 91.98 54.28 Z" fill="#b6cbea" fill-rule="nonzero" group-id="1,4,14,27" node-id="630" stroke="none" target-height="5.5916023" target-width="8.434204" target-x="91.976" target-y="54.2824"/><path d="M 100.41 60.91 L 100.40 61.63 L 91.97 56.76 L 91.97 56.04 Z" fill="#b6cbea" fill-rule="nonzero" group-id="1,4,14,28" node-id="635" stroke="none" target-height="5.5916023" target-width="8.434196" target-x="91.9711" target-y="56.0394"/></g></svg>